<?xml version="1.0" standalone="no"?>
<!DOCTYPE svg PUBLIC "-//W3C//DTD SVG 20010904//EN"
 "http://www.w3.org/TR/2001/REC-SVG-20010904/DTD/svg10.dtd">
<svg version="1.0" xmlns="http://www.w3.org/2000/svg"
 width="936.000000pt" height="908.000000pt" viewBox="0 0 936.000000 908.000000"
 preserveAspectRatio="xMidYMid meet">

<g transform="translate(0.000000,908.000000) scale(0.100000,-0.100000)"
fill="#000000" stroke="none">
<path d="M6015 8949 c-71 -5 -141 -11 -155 -13 -42 -9 -102 -23 -161 -39 -39
-11 -81 -14 -135 -10 l-79 6 -83 -46 c-45 -25 -94 -59 -108 -76 -14 -17 -64
-62 -112 -100 -48 -38 -102 -82 -120 -99 -19 -17 -48 -41 -65 -54 -17 -13 -52
-41 -77 -64 -25 -23 -51 -43 -58 -45 -31 -10 -198 -172 -208 -201 -3 -10 -10
-16 -15 -13 -5 4 -9 -3 -9 -15 0 -11 -11 -32 -25 -46 -14 -14 -25 -31 -25 -37
0 -7 -4 -17 -9 -22 -5 -6 -38 -75 -74 -155 -63 -141 -105 -264 -114 -342 -3
-21 -9 -38 -14 -38 -5 0 -6 -15 -3 -32 4 -25 3 -29 -5 -18 -9 12 -11 11 -12
-10 0 -14 -2 -32 -4 -41 -15 -79 -34 -187 -34 -199 0 -8 -8 -64 -16 -125 -21
-144 -29 -400 -16 -495 5 -41 17 -115 25 -165 8 -49 15 -94 16 -98 0 -5 4 -6
8 -3 5 3 7 -50 6 -117 -3 -129 -2 -124 -83 -352 -18 -49 -36 -97 -40 -105 -5
-9 -12 -30 -15 -47 -4 -17 -23 -60 -42 -96 -28 -52 -40 -66 -64 -70 -27 -6
-46 -16 -150 -83 -19 -12 -50 -25 -68 -29 -18 -4 -36 -13 -39 -21 -2 -7 -14
-16 -26 -20 -39 -12 -80 -47 -217 -180 -135 -132 -336 -291 -442 -352 -53 -31
-101 -79 -125 -127 -16 -30 -40 -150 -48 -235 -7 -68 -6 -73 9 -61 19 16 22 1
4 -18 -9 -8 -13 -50 -14 -129 -1 -74 -9 -162 -23 -237 -12 -66 -27 -149 -33
-185 -5 -36 -17 -73 -27 -84 -9 -10 -16 -19 -15 -20 0 0 6 -11 13 -23 7 -13
21 -23 34 -23 16 0 18 -3 8 -9 -19 -12 -3 -34 20 -28 12 3 23 -2 30 -14 6 -11
21 -24 33 -29 23 -8 43 -50 25 -50 -5 0 -9 7 -9 15 0 8 -5 15 -11 15 -5 0 -7
-5 -4 -10 7 -11 -23 -9 -43 4 -16 10 -52 -20 -52 -43 0 -14 -2 -14 -9 -1 -6 8
-7 18 -4 23 5 9 -14 26 -28 27 -11 0 -18 -40 -8 -46 5 -3 9 5 10 18 1 20 2 19
10 -7 6 -20 5 -32 -4 -37 -17 -11 -29 -10 -22 2 3 6 1 10 -4 10 -6 0 -11 9
-11 20 0 11 -7 20 -15 20 -8 0 -15 -4 -15 -10 0 -5 -7 -10 -16 -10 -9 0 -12
-5 -8 -12 4 -7 -2 -5 -13 5 -12 10 -27 20 -35 21 -7 1 -24 8 -36 15 -13 7 -25
11 -26 9 -2 -2 -8 -12 -15 -23 -7 -11 -10 -13 -8 -5 2 8 -5 33 -16 54 -18 36
-21 38 -32 22 -10 -13 -14 -14 -18 -4 -4 9 -6 9 -6 -2 0 -8 7 -24 15 -35 l16
-20 -6 20 c-7 26 8 54 17 31 4 -9 4 -24 1 -33 -5 -15 -4 -16 5 -3 9 13 11 13
11 -2 0 -10 -5 -18 -11 -18 -5 0 -8 -4 -5 -9 4 -5 -3 -7 -15 -4 -19 5 -20 3
-14 -18 4 -14 4 -20 -1 -16 -5 5 -9 25 -9 45 0 23 -4 36 -12 35 -19 -4 -26 35
-9 53 9 8 16 12 16 8 0 -4 9 1 20 11 19 17 21 17 41 -1 21 -19 22 -19 15 2 -4
14 -2 23 7 27 16 6 32 -3 38 -21 3 -9 10 -5 19 12 11 21 11 29 1 39 -10 9 -11
8 -6 -8 6 -20 6 -20 -9 -1 -14 17 -14 20 1 31 10 7 22 12 28 11 5 -2 7 -1 3 1
-14 8 -8 22 7 17 8 -3 19 -21 25 -40 7 -19 15 -32 20 -29 5 3 2 18 -6 33 -12
24 -12 28 4 34 15 6 15 7 -3 8 -30 1 -70 26 -56 34 6 4 11 2 11 -5 0 -7 3 -10
6 -6 6 6 -27 56 -38 57 -4 0 -9 -9 -13 -19 -10 -31 -63 -50 -132 -46 -34 2
-73 10 -85 17 -13 7 -26 12 -29 11 -3 -1 -20 11 -37 27 -36 33 -40 61 -17 125
8 22 15 48 15 58 0 9 7 17 15 17 13 0 15 -7 9 -34 -6 -32 -4 -36 27 -49 48
-19 99 -31 79 -17 -13 9 -13 11 0 20 22 14 33 12 26 -5 -3 -8 0 -15 7 -15 8 0
7 -4 -3 -11 -11 -7 -6 -8 20 -3 55 10 70 22 70 53 0 15 10 63 21 107 12 43 24
91 26 107 5 24 14 30 72 47 75 23 165 76 156 91 -5 7 -11 7 -19 0 -7 -6 -16
-8 -19 -4 -4 3 -7 1 -7 -6 0 -7 -4 -9 -10 -6 -5 3 -19 1 -30 -5 -26 -14 -52 3
-43 27 3 8 0 19 -7 23 -9 6 1 13 31 22 l44 13 -79 3 c-52 2 -94 -2 -124 -13
-25 -8 -46 -15 -47 -15 -1 0 -2 7 -2 15 0 8 4 12 9 9 10 -6 98 53 98 66 0 6
-4 10 -10 10 -5 0 -10 7 -10 15 0 14 -12 19 -32 16 -5 0 -8 4 -8 9 0 6 -5 10
-11 10 -5 0 -8 -3 -6 -7 3 -5 -6 -9 -19 -9 -21 -2 -24 2 -24 35 0 32 6 43 42
72 23 19 53 41 66 50 13 9 22 20 20 25 -4 10 -63 6 -106 -8 -18 -5 -35 -8 -38
-5 -3 2 5 21 16 41 12 19 20 41 18 48 -3 7 -13 -2 -22 -20 -10 -19 -20 -31
-23 -28 -3 3 -1 12 5 19 7 8 9 17 5 20 -3 4 -1 7 5 7 7 0 12 7 12 16 0 8 -4
12 -10 9 -6 -3 -7 1 -4 9 3 9 1 16 -5 16 -6 0 -11 -10 -11 -22 -1 -25 -26 -65
-35 -56 -3 3 0 12 8 19 7 8 12 20 9 27 -2 7 1 27 7 45 l11 32 -20 -24 c-11
-13 -20 -18 -20 -12 0 6 -7 8 -15 5 -8 -4 -15 -16 -15 -28 -1 -20 -1 -20 -15
-2 -9 12 -21 17 -35 13 -14 -3 -20 -1 -17 6 3 7 11 11 18 9 11 -3 12 -1 2 9
-18 18 -16 30 4 22 11 -5 14 -3 8 6 -4 8 -2 17 6 22 10 6 7 9 -11 9 -20 0 -22
2 -10 10 13 9 7 14 -12 11 -5 0 -8 11 -9 27 l-1 27 -8 -30 c-5 -16 -13 -43
-18 -60 l-9 -30 -4 38 c-3 21 -1 40 3 43 4 3 8 15 8 27 0 28 -13 12 -34 -42
-12 -31 -14 -47 -7 -54 16 -16 13 -47 -3 -47 -9 0 -16 -15 -20 -37 -16 -111
-17 -131 -7 -137 6 -4 11 -22 11 -40 0 -18 7 -55 15 -82 8 -27 15 -71 15 -99
0 -27 5 -70 11 -94 7 -31 6 -60 -1 -98 -10 -46 -9 -57 4 -72 16 -17 17 -74 1
-89 -3 -4 -37 -6 -73 -4 -52 2 -71 7 -89 24 -32 30 -30 94 3 67 30 -25 29 150
-2 209 -16 31 -18 73 -5 88 5 5 12 19 15 31 6 18 2 16 -26 -10 -18 -18 -39
-44 -47 -58 -13 -26 -48 -49 -76 -49 -22 0 -34 51 -17 77 13 22 13 23 -10 23
-13 0 -33 7 -44 15 -18 13 -17 14 17 15 29 0 42 7 61 33 50 65 59 93 59 190 0
98 -15 156 -52 208 -21 29 -21 31 -3 44 11 8 26 15 34 16 8 1 -14 5 -49 9 -34
4 -66 12 -70 18 -4 6 -26 18 -49 26 l-42 15 0 -28 c0 -23 -5 -30 -27 -34 -35
-6 -70 10 -78 37 -3 11 -7 41 -8 65 -3 63 -22 62 -33 -3 -10 -50 -9 -55 10
-64 17 -8 13 -9 -23 -10 -26 0 -50 5 -59 14 -13 13 -12 17 7 35 24 22 27 39 9
57 -11 11 1 32 56 105 16 21 26 22 26 3 0 -7 18 -29 40 -47 23 -19 55 -47 72
-62 17 -15 32 -26 34 -24 9 9 -9 33 -45 62 -38 30 -42 39 -28 61 4 7 0 14 -8
18 -15 5 -22 56 -8 56 4 0 22 -15 41 -32 26 -25 32 -27 23 -11 -15 29 -14 33
7 33 10 0 29 -11 42 -25 28 -29 37 -31 37 -7 0 35 3 42 21 42 9 0 31 -9 47
-20 17 -11 24 -20 18 -20 -7 0 -13 -5 -13 -10 0 -7 6 -7 19 0 27 14 74 13 90
-3 11 -10 12 -8 6 12 -5 16 -4 21 4 17 6 -4 11 -13 11 -21 0 -10 20 -25 34
-25 2 0 0 19 -4 42 -5 24 -6 46 -3 51 7 11 23 -2 34 -27 8 -18 9 -16 6 11 -3
28 0 33 25 39 16 3 32 13 36 22 3 10 16 25 29 35 24 19 51 92 39 104 -4 4 -15
2 -24 -5 -9 -6 -33 -21 -53 -31 -20 -11 -47 -34 -60 -50 -13 -17 -34 -44 -47
-61 -13 -16 -29 -30 -35 -30 -7 0 -2 8 11 18 24 19 43 92 24 92 -6 0 -13 -9
-17 -20 -12 -38 -115 -69 -115 -34 0 8 -4 13 -9 10 -5 -4 -21 8 -35 25 -17 19
-32 29 -42 25 -8 -3 -13 -2 -10 2 2 4 1 14 -4 22 -13 21 14 40 59 40 22 0 43
6 48 13 14 23 13 47 -2 47 -8 0 -15 -6 -15 -14 0 -8 -7 -17 -16 -20 -25 -10
-82 -7 -89 4 -3 6 -1 10 5 10 6 0 9 4 6 9 -8 12 40 31 79 31 27 0 33 3 28 16
-3 9 -9 12 -12 7 -3 -4 -15 -9 -26 -10 -34 -4 -89 -13 -106 -18 -11 -4 -19 2
-23 17 -5 14 -9 18 -13 11 -8 -21 -25 -15 -18 6 3 11 0 23 -6 27 -7 4 -9 3 -6
-3 4 -6 -1 -19 -9 -29 -13 -16 -15 -16 -10 -2 3 12 1 15 -10 11 -17 -6 -28
-45 -21 -72 5 -22 56 -17 -701 -56 -260 -13 -477 -27 -482 -30 -5 -3 -21 -43
-35 -88 -38 -121 -22 -137 133 -136 l52 0 0 -83 c0 -163 -40 -504 -67 -574 -5
-13 -3 -15 8 -9 8 5 -10 -17 -39 -50 -62 -71 -137 -212 -147 -277 -7 -44 -5
-51 24 -83 36 -41 39 -50 11 -35 -11 6 -20 8 -20 5 0 -13 -59 26 -64 43 -4 10
-13 19 -21 19 -11 0 -12 -4 -3 -14 14 -18 2 -29 -15 -14 -12 9 -13 5 -4 -29
13 -47 6 -58 -25 -38 -13 8 -33 13 -46 12 -16 -3 -21 0 -16 8 5 8 0 9 -14 6
-14 -4 -20 -2 -15 5 4 7 0 8 -11 4 -10 -4 -20 -7 -23 -7 -3 0 0 -7 7 -15 7 -8
9 -15 5 -15 -4 0 -1 -7 6 -17 13 -15 12 -15 -6 -5 -21 11 -83 74 -130 132 -21
27 -26 30 -21 12 17 -53 80 -141 129 -180 14 -12 19 -12 32 2 21 20 64 21 71
1 4 -8 10 -13 14 -10 4 2 28 -2 54 -11 33 -11 46 -21 46 -35 0 -10 -4 -19 -10
-19 -22 0 38 -49 73 -58 31 -9 38 -8 47 6 8 14 9 15 10 2 0 -18 35 -51 44 -43
3 4 6 1 6 -6 0 -14 -41 -5 -51 12 -5 8 -69 -29 -69 -40 0 -1 20 0 45 4 36 4
50 2 65 -12 23 -20 26 -45 8 -63 -6 -6 -9 -15 -5 -18 10 -10 39 5 32 16 -3 5
-1 10 6 10 9 0 9 3 0 14 -13 15 1 32 18 21 13 -7 26 15 14 24 -5 3 -10 15 -11
26 -6 71 -16 111 -28 121 -7 6 -15 31 -16 55 -3 39 -1 44 17 42 12 -1 26 6 32
16 10 16 9 18 -8 14 -16 -4 -19 0 -19 25 0 27 5 32 37 41 30 9 39 8 46 -4 4
-8 13 -15 19 -15 7 0 6 5 -1 14 -10 12 -7 18 14 32 23 15 27 15 43 2 28 -25
39 -12 34 42 -3 31 -1 50 6 50 14 0 22 -26 22 -76 0 -42 1 -43 20 -32 11 7 20
20 21 28 0 10 2 11 6 3 3 -10 10 -9 28 3 20 13 23 13 28 -1 4 -9 18 -15 35
-15 32 0 52 -19 71 -67 7 -18 24 -44 37 -58 30 -33 32 -79 3 -98 -20 -14 -20
-16 -5 -46 9 -17 23 -31 31 -31 7 0 26 -5 42 -11 15 -6 28 -9 28 -7 1 2 13 -5
27 -14 l26 -17 6 53 c12 94 35 114 173 156 37 11 98 5 66 -7 -18 -7 -16 -21 7
-46 12 -12 23 -33 26 -47 2 -14 9 -45 14 -69 9 -35 8 -48 -4 -67 -14 -21 -14
-24 9 -46 14 -13 25 -28 25 -34 0 -18 32 -26 42 -12 5 9 8 6 8 -9 0 -25 7 -28
28 -14 11 7 9 13 -9 30 -22 20 -22 21 -3 21 30 0 32 6 22 54 -12 59 1 111 29
110 19 0 22 7 27 85 3 47 5 101 3 119 -2 18 3 37 10 44 7 6 13 16 13 22 0 20
60 19 67 -1 4 -9 1 -19 -5 -21 -14 -4 -16 -68 -3 -76 12 -8 24 -65 21 -108 -1
-21 3 -38 9 -38 5 0 8 -9 6 -20 -5 -26 32 -28 51 -2 12 15 13 12 14 -25 0 -24
3 -43 8 -43 7 0 9 9 18 130 3 41 10 81 16 88 14 16 16 131 3 136 -5 2 -1 7 10
11 11 4 28 17 38 29 18 21 18 21 15 -19 -2 -32 1 -40 15 -43 11 -2 28 -13 39
-24 18 -18 19 -25 10 -57 -6 -20 -11 -60 -11 -90 0 -30 -3 -63 -7 -73 -3 -10
0 -25 6 -33 7 -8 10 -24 7 -36 -6 -22 10 -69 24 -69 4 0 9 7 13 15 8 23 22 18
35 -12 13 -31 12 -163 -1 -163 -4 0 -8 5 -8 10 0 7 -6 7 -19 0 -11 -5 -29 -10
-40 -10 -12 0 -21 -4 -21 -10 0 -5 -8 -10 -17 -10 -15 0 -16 2 -3 10 13 8 13
10 -2 10 -9 0 -19 -6 -21 -12 -4 -10 -6 -10 -6 0 -1 6 -8 12 -16 12 -18 0 -20
-20 -2 -21 6 0 3 -4 -8 -9 -30 -13 -38 -12 -31 6 4 11 -1 22 -13 30 -15 11
-18 22 -14 52 5 39 -9 82 -27 82 -6 0 -10 -22 -10 -50 0 -47 -11 -63 -25 -40
-4 6 -14 1 -25 -12 -13 -15 -19 -18 -20 -9 0 8 7 19 17 26 9 7 14 19 10 28 -5
12 -13 14 -44 7 -25 -6 -40 -5 -44 2 -4 6 -11 8 -17 4 -5 -3 -12 1 -16 9 -7
18 -43 20 -49 3 -9 -28 4 -44 31 -40 22 3 35 -5 70 -47 36 -42 46 -49 65 -42
25 9 47 4 47 -11 0 -6 -7 -8 -15 -4 -20 7 -42 -18 -56 -64 -13 -42 -33 -51
-59 -27 -11 9 -11 8 0 -8 22 -30 59 -59 94 -73 l31 -12 -35 6 c-19 3 -48 6
-63 6 -18 1 -24 4 -16 8 15 10 -11 40 -35 40 -18 0 -21 -31 -5 -47 9 -9 0 -14
-32 -23 -24 -6 -51 -14 -59 -17 -8 -3 -55 -7 -105 -10 -117 -6 -115 -5 -115
-13 0 -4 -12 -5 -26 -2 -19 3 -25 1 -20 -7 4 -6 3 -11 -3 -11 -5 0 -13 4 -16
10 -3 5 -19 10 -34 10 -36 0 -42 7 -30 38 15 39 2 81 -28 88 -13 4 -34 2 -46
-4 -12 -5 -35 -10 -52 -11 -23 -1 -27 1 -17 11 7 7 22 13 35 14 12 1 35 6 50
13 16 6 33 11 38 11 13 0 11 16 -5 29 -7 6 -16 25 -20 42 -6 31 -6 31 -31 15
-13 -9 -31 -16 -40 -16 -9 0 -13 -5 -10 -10 3 -6 -4 -10 -17 -10 -22 -1 -22
-1 5 -16 15 -8 27 -20 27 -27 0 -17 -54 -39 -92 -37 -18 1 -39 2 -45 1 -17 -1
-16 -44 2 -88 8 -19 15 -36 15 -37 0 -2 -21 -13 -48 -26 -26 -13 -54 -32 -63
-42 -21 -24 -26 -23 -25 5 1 17 -7 24 -32 32 -24 7 -35 17 -39 35 -3 17 -11
26 -24 26 -10 0 -19 -4 -19 -8 0 -4 -12 -6 -27 -4 -16 2 -21 1 -11 -1 9 -2 19
-11 22 -18 6 -16 -10 -30 -18 -16 -3 5 -16 7 -28 3 -14 -3 -19 -2 -14 7 14 23
-5 50 -39 57 -29 5 -34 11 -37 38 -3 28 -6 31 -35 28 -34 -3 -59 22 -66 66 -5
31 -12 36 -63 39 l-46 2 26 -20 c29 -23 33 -36 11 -36 -8 0 -15 4 -15 9 0 4
-10 8 -23 8 -33 0 -97 47 -97 71 0 11 10 33 21 48 12 16 19 33 15 39 -7 12 22
74 41 85 7 4 11 18 10 30 -2 12 -2 16 0 10 6 -17 21 -16 62 6 39 21 32 29 -34
37 -41 6 -51 3 -89 -24 -51 -37 -96 -56 -96 -42 0 6 9 10 19 10 11 0 26 6 33
13 7 8 25 20 38 27 l25 13 -29 10 c-21 7 -30 6 -36 -3 -4 -7 -15 -10 -24 -7
-9 4 -16 1 -16 -6 0 -7 -9 -1 -20 13 -22 28 -25 24 -10 -14 8 -23 7 -26 -13
-26 -49 0 -67 11 -67 41 0 16 5 29 10 29 6 0 10 6 10 13 0 18 -89 6 -104 -15
-6 -8 -19 -17 -28 -21 -10 -3 -18 -12 -18 -19 0 -7 -25 -31 -56 -53 -58 -41
-79 -68 -69 -85 3 -6 1 -10 -5 -10 -6 0 -8 -4 -5 -10 4 -6 26 -2 58 10 29 11
56 20 60 20 4 0 7 -45 6 -99 -1 -99 -1 -100 33 -143 l33 -43 -2 -150 c-2 -174
-3 -185 -16 -185 -6 0 -7 -24 -3 -62 5 -51 14 -73 48 -123 49 -69 64 -88 96
-121 12 -13 22 -29 22 -36 0 -7 -11 1 -24 17 -13 17 -38 46 -55 65 -17 19 -39
47 -48 62 -17 27 -33 37 -33 20 0 -8 49 -83 60 -92 3 -3 17 -21 30 -40 14 -19
34 -44 45 -56 30 -32 65 -74 65 -79 0 -2 10 -15 23 -28 12 -13 42 -47 67 -76
25 -30 50 -59 55 -65 6 -6 35 -40 65 -76 71 -84 129 -140 146 -140 25 0 25 20
-1 30 -27 10 -63 44 -107 100 -15 19 -38 48 -52 63 -13 16 -39 46 -56 67 -17
21 -42 51 -56 67 -13 15 -24 33 -24 38 0 6 10 -2 23 -17 12 -15 40 -48 62 -74
51 -61 131 -149 170 -186 27 -27 33 -29 90 -24 33 3 119 14 190 25 72 11 146
22 165 25 19 2 51 7 70 10 39 7 82 13 155 22 42 5 119 18 345 59 14 2 43 7 65
10 22 3 175 28 340 56 165 28 318 53 340 56 22 3 43 11 47 17 5 8 8 7 8 -1 0
-7 6 -10 13 -8 12 4 43 11 107 22 19 3 38 11 42 17 5 8 8 7 8 -2 0 -9 7 -9 30
3 17 9 30 12 30 7 0 -8 77 -1 138 13 15 4 22 1 22 -9 0 -10 -29 -19 -97 -31
-54 -9 -129 -23 -168 -31 -38 -8 -84 -16 -101 -18 -68 -8 -180 -28 -194 -33
-8 -4 -19 -5 -24 -4 -5 1 -16 -1 -25 -5 -9 -3 -27 -7 -41 -8 -67 -5 -200 -30
-200 -38 0 -5 -4 -7 -9 -3 -5 3 -146 -17 -313 -45 -167 -28 -321 -53 -343 -56
-22 -2 -53 -7 -70 -10 -58 -11 -80 -14 -130 -19 -27 -3 -61 -8 -75 -12 -14 -3
-28 -6 -31 -5 -4 1 -44 -5 -90 -13 -46 -8 -111 -17 -144 -20 -33 -4 -64 -11
-70 -17 -16 -16 98 -4 385 41 140 22 271 42 290 45 19 2 46 7 60 10 14 3 43 9
65 12 82 12 91 13 120 18 17 3 82 14 145 26 63 11 133 22 155 25 22 2 51 7 65
10 14 3 45 8 70 10 25 3 79 12 120 20 41 8 93 17 115 20 22 3 150 25 285 49
135 24 247 42 249 40 2 -2 1 -10 -2 -17 -3 -9 -33 -19 -74 -27 -37 -6 -75 -14
-83 -17 -8 -3 -25 -5 -37 -4 -13 1 -23 -3 -23 -9 0 -9 13 -10 48 -5 140 22
162 24 162 16 0 -19 -109 -44 -245 -56 -32 -3 -62 -8 -66 -11 -5 -3 -25 -7
-46 -9 -109 -13 -311 -50 -303 -55 6 -4 56 2 113 11 56 10 158 25 227 35 69 9
166 24 215 34 90 18 107 18 89 0 -8 -7 -243 -46 -406 -67 -27 -3 -48 -9 -48
-12 0 -3 -17 -6 -38 -7 -20 0 -53 -3 -72 -7 -34 -7 -35 -8 -35 -55 0 -26 -4
-55 -7 -65 -9 -21 -61 -23 -78 -2 -14 17 -56 20 -65 5 -3 -5 -16 -8 -28 -6
-12 3 -28 5 -34 5 -19 1 -16 41 4 64 17 19 17 20 0 14 -9 -4 -59 -13 -110 -22
-154 -26 -144 -22 -139 -56 5 -34 -21 -90 -50 -108 -18 -11 -18 -10 -3 18 24
47 20 56 -24 56 -24 1 -48 8 -60 19 -25 23 -48 15 -62 -21 -6 -15 -16 -38 -22
-51 -11 -23 -11 -23 -18 -3 -8 20 -3 66 8 84 4 6 -4 7 -18 4 -13 -3 -43 -9
-66 -13 -42 -6 -53 -17 -33 -29 5 -3 10 -24 10 -46 0 -29 -4 -39 -14 -37 -8 2
-15 -1 -15 -7 1 -28 -89 -32 -119 -5 -28 26 -40 25 -73 -6 -25 -24 -29 -25
-43 -11 -18 17 -16 51 2 69 7 7 12 17 12 24 0 6 14 17 30 24 55 23 41 27 -28
10 -68 -18 -202 -40 -369 -62 -51 -7 -93 -16 -93 -21 0 -5 15 -7 33 -3 17 3
88 12 157 21 69 8 150 19 179 25 30 5 59 10 65 9 24 -2 -54 -20 -169 -39 -66
-12 -124 -23 -130 -25 -11 -6 60 2 113 11 30 6 32 4 32 -20 0 -15 5 -59 12
-97 10 -62 15 -74 45 -96 40 -31 103 -44 148 -32 18 5 54 28 80 51 27 24 50
38 52 33 12 -36 49 -78 78 -91 54 -22 88 -17 145 22 28 19 53 34 54 32 2 -2 9
-59 16 -128 25 -230 10 -387 -42 -446 -23 -26 -23 -60 2 -91 14 -18 19 -39 18
-74 -1 -54 13 -81 68 -132 30 -28 36 -42 49 -117 44 -253 85 -407 121 -449 37
-44 263 -154 359 -175 44 -9 97 -21 118 -27 21 -6 90 -12 155 -15 104 -4 124
-2 181 18 72 26 89 48 116 151 8 31 26 80 41 109 14 29 57 122 94 206 38 84
77 165 88 180 10 15 21 34 24 42 3 8 29 47 58 85 28 39 67 97 86 131 19 33 43
69 54 79 12 11 20 31 20 52 0 45 52 134 92 157 43 26 108 80 165 138 26 27 52
48 58 48 7 0 23 9 37 20 19 14 28 16 36 8 15 -15 15 -130 2 -253 -6 -49 -15
-136 -20 -191 -14 -144 -76 -473 -104 -558 -14 -39 -50 -131 -81 -205 -33 -78
-65 -171 -76 -225 -10 -50 -23 -107 -28 -126 -6 -19 -15 -65 -20 -103 -9 -62
-13 -71 -55 -112 -25 -24 -46 -53 -46 -65 l0 -20 2945 0 c2604 0 2945 2 2945
15 0 26 40 405 60 569 25 204 25 302 -1 496 l-22 157 27 79 c14 44 26 94 26
113 0 18 8 61 17 95 19 68 18 9 11 1011 -3 451 -9 694 -17 766 -13 101 -12
108 9 167 25 70 23 115 -11 191 -11 25 -24 76 -29 113 -6 37 -26 120 -45 184
-20 64 -40 146 -45 183 -5 36 -18 111 -29 166 -10 55 -25 138 -31 185 -7 47
-19 114 -27 149 -17 76 -88 266 -111 298 -26 36 -174 153 -202 160 -14 3 -63
26 -110 50 -93 49 -113 51 -215 18 l-50 -16 -90 41 c-49 23 -117 51 -150 62
-33 11 -93 41 -132 67 -40 25 -100 63 -134 85 -33 21 -65 49 -71 62 -6 13 -17
24 -23 24 -15 0 -40 84 -37 125 2 23 0 27 -7 15 -8 -12 -11 -8 -11 18 0 17 -4
32 -10 32 -5 0 -3 20 5 47 8 26 12 49 10 52 -3 2 -1 9 4 15 11 14 33 117 27
124 -3 2 -9 -15 -12 -39 l-7 -44 -14 34 c-8 20 -10 37 -5 40 5 3 12 56 16 116
4 61 9 121 12 135 4 22 3 23 -5 5 -8 -16 -10 -17 -10 -3 -1 9 -4 25 -8 35 -5
15 -4 16 8 6 12 -9 14 -3 15 40 l1 52 -13 -35 c-15 -41 -17 -22 -4 34 6 30 5
45 -6 60 -8 11 -14 31 -14 44 0 13 -7 37 -16 54 -9 17 -11 27 -4 23 11 -7 9
27 -5 115 l-4 25 11 -25 c6 -14 21 -45 33 -70 20 -42 29 -68 55 -160 9 -34 9
-33 4 10 -2 25 -6 57 -7 72 -1 14 -6 24 -11 20 -5 -3 -7 5 -4 16 4 12 2 20 -3
16 -5 -3 -8 5 -8 18 1 13 -6 37 -15 53 -9 17 -16 24 -16 16 0 -8 -2 -12 -5 -9
-9 8 6 38 16 32 5 -3 9 0 9 5 0 6 -4 11 -10 11 -5 0 -7 7 -4 15 4 8 2 15 -4
15 -6 0 -15 15 -21 33 -9 25 -14 29 -21 17 -5 -8 -10 -10 -10 -4 0 6 7 17 15
24 19 16 19 27 0 27 -8 0 -12 -5 -9 -11 3 -6 -2 -2 -10 8 -9 11 -18 36 -21 55
-3 20 -10 53 -14 73 -5 21 -5 36 -1 33 9 -6 -7 84 -20 107 -8 15 -34 141 -43
213 -3 26 -4 24 -6 -10 l-3 -40 -14 50 c-32 107 -45 171 -41 198 2 15 0 27 -5
27 -14 0 -9 30 7 36 8 4 15 13 15 21 0 9 -6 13 -15 9 -17 -6 -22 29 -5 39 6 3
10 11 10 16 0 6 -4 7 -10 4 -5 -3 -10 1 -10 11 0 9 -7 22 -15 28 -9 7 -16 31
-17 62 -2 29 -6 50 -9 48 -4 -2 -9 15 -12 39 -7 58 -30 133 -62 203 -187 405
-291 565 -473 726 -71 63 -113 91 -227 147 -77 38 -162 74 -190 80 -73 16
-255 41 -290 39 -16 0 -88 -5 -160 -9z m-245 -547 c0 -13 -12 -22 -22 -16 -10
6 -1 24 13 24 5 0 9 -4 9 -8z m-90 -102 c0 -5 -5 -10 -11 -10 -5 0 -7 5 -4 10
3 6 8 10 11 10 2 0 4 -4 4 -10z m-153 -162 c-3 -8 -6 -5 -6 6 -1 11 2 17 5 13
3 -3 4 -12 1 -19z m-17 -68 c0 -5 -5 -10 -11 -10 -5 0 -7 5 -4 10 3 6 8 10 11
10 2 0 4 -4 4 -10z m-259 -53 c-10 -9 -11 -8 -5 6 3 10 9 15 12 12 3 -3 0 -11
-7 -18z m149 -32 c0 -3 -4 -3 -10 0 -5 3 -10 2 -10 -3 0 -5 11 -14 24 -20 23
-10 24 -10 16 20 -8 25 -7 29 7 24 8 -4 22 -1 29 5 11 9 14 7 14 -7 0 -16 2
-16 9 -4 6 8 7 19 5 25 -3 5 1 2 9 -7 9 -11 30 -19 53 -19 29 -2 32 -3 12 -6
-19 -3 -26 -10 -25 -23 1 -10 5 -16 9 -14 5 3 6 10 3 15 -4 5 3 9 14 9 18 0
19 -3 10 -26 -5 -15 -7 -29 -4 -32 3 -3 5 -1 5 5 0 6 9 9 21 6 15 -4 17 -8 8
-14 -8 -5 -1 -11 22 -17 22 -6 34 -14 33 -25 -2 -18 21 -23 31 -7 14 22 43 10
49 -21 4 -21 10 -29 20 -26 19 8 56 -20 56 -42 0 -11 7 -18 16 -17 12 1 21
-14 31 -50 8 -27 23 -56 34 -62 11 -7 19 -8 19 -2 0 5 -4 10 -9 10 -5 0 -11 9
-14 20 -5 18 -4 18 19 3 13 -8 24 -24 24 -35 0 -11 8 -22 19 -25 11 -3 19 -13
18 -23 -1 -10 -5 -16 -9 -14 -5 3 -6 10 -3 15 4 5 1 9 -4 9 -19 0 -12 -20 15
-47 15 -15 19 -23 10 -20 -14 6 -15 4 -4 -16 7 -12 11 -26 9 -32 -1 -5 1 -6 6
-2 4 5 8 14 8 20 0 23 24 16 45 -13 24 -34 11 -42 -15 -7 -16 21 -16 21 0 -6
9 -16 14 -31 11 -35 -10 -9 26 -42 38 -35 6 4 5 -1 -3 -10 -12 -15 -12 -17 1
-12 13 5 70 -32 89 -58 3 -4 10 -7 15 -6 23 4 34 -3 34 -21 0 -13 9 -21 28
-25 42 -9 171 -77 169 -89 -1 -6 4 -10 11 -8 8 1 11 -2 7 -8 -3 -5 3 -23 15
-39 14 -21 17 -32 9 -37 -7 -4 -9 -3 -6 3 3 5 0 10 -8 10 -10 0 -12 -4 -5 -12
5 -7 6 -16 2 -21 -4 -4 0 -3 9 4 12 9 20 9 35 -3 17 -13 17 -14 2 -15 -17 0
-18 -26 -2 -53 5 -7 0 -6 -11 3 -17 14 -18 14 -7 -6 6 -12 9 -24 6 -26 -2 -3
2 -11 11 -18 8 -7 15 -19 15 -27 0 -8 4 -11 10 -8 6 4 7 -2 1 -18 -7 -18 -6
-24 5 -24 9 0 13 6 9 16 -3 8 -3 12 2 8 4 -5 8 -22 9 -38 1 -23 -1 -27 -12
-19 -10 10 -11 7 -1 -14 7 -14 15 -26 20 -26 4 0 7 -8 7 -18 0 -20 29 -64 30
-44 0 6 8 12 18 12 14 0 15 -2 2 -10 -10 -6 -11 -10 -2 -10 6 0 13 -10 13 -22
1 -17 2 -19 6 -5 2 9 11 17 19 17 8 0 14 6 14 13 0 6 5 4 11 -5 8 -14 13 -15
23 -6 8 7 12 18 9 24 -2 7 6 19 19 28 12 9 17 16 10 16 -6 0 -12 7 -12 15 0 8
7 15 15 15 8 0 15 5 15 10 0 6 6 10 13 10 7 0 29 11 49 25 20 14 39 25 42 25
3 0 6 -17 8 -37 l3 -38 12 39 c7 21 22 49 34 62 13 13 17 24 11 24 -14 0 -16
26 -3 34 4 3 23 0 42 -7 31 -11 45 -24 86 -76 11 -14 12 -13 13 7 0 29 -60 92
-88 92 -11 0 -25 6 -31 14 -21 25 27 46 117 53 109 8 113 4 108 -101 -2 -44
-11 -97 -19 -116 -8 -19 -20 -53 -26 -75 -15 -55 -174 -252 -223 -278 -39 -19
-48 -43 -26 -65 9 -9 9 -12 0 -13 -7 -1 -18 -2 -24 -3 -20 -2 -23 -65 -4 -72
25 -9 19 -34 -7 -34 -22 0 -23 4 -22 55 1 31 7 61 13 67 22 22 12 46 -25 69
-21 13 -43 27 -49 31 -6 4 -20 -1 -31 -12 -12 -10 -23 -16 -26 -13 -4 3 -9 -6
-13 -21 -3 -14 -11 -26 -16 -26 -6 0 -7 -7 -4 -16 4 -9 3 -22 -2 -28 -5 -6
-19 -38 -32 -71 -13 -33 -27 -62 -31 -65 -4 -3 -14 -21 -24 -40 -35 -73 -63
-119 -69 -113 -3 4 -6 -5 -6 -19 0 -14 -13 -44 -30 -66 -16 -23 -30 -46 -30
-52 0 -5 -4 -10 -10 -10 -5 0 -10 -9 -10 -20 0 -21 -38 -62 -51 -55 -4 3 -5
-3 -2 -13 3 -11 -9 -33 -31 -58 -20 -21 -36 -45 -36 -51 0 -7 -3 -13 -7 -13
-5 0 -19 -17 -33 -38 -25 -37 -115 -132 -127 -132 -3 0 -16 -11 -29 -25 -13
-14 -28 -25 -34 -25 -5 0 -10 -4 -10 -10 0 -5 -6 -10 -12 -11 -7 0 -29 -20
-48 -44 -21 -26 -44 -44 -56 -44 -12 -1 -27 -8 -34 -16 -19 -23 -56 -18 -87
11 -19 17 -22 24 -10 20 10 -3 15 -2 12 3 -10 17 -86 -4 -105 -28 -12 -15
-121 -64 -127 -57 -5 4 0 12 10 17 18 11 23 29 8 29 -5 0 -16 -6 -23 -12 -32
-30 -65 -40 -136 -43 -106 -5 -174 32 -208 112 -17 40 -17 43 1 43 20 0 19 10
-5 40 -11 14 -20 32 -21 40 0 8 -5 4 -9 -10 -5 -14 -8 -18 -9 -9 -1 9 -8 22
-16 29 -17 14 -20 50 -5 50 6 0 10 -4 10 -10 0 -21 18 -9 30 20 14 34 44 55
65 46 8 -3 17 -1 20 3 3 5 21 5 40 1 19 -4 35 -4 35 0 0 16 -44 40 -72 40 -16
0 -28 5 -28 10 0 6 22 10 49 10 31 0 53 5 61 15 7 8 19 15 26 15 8 0 19 12 25
26 11 30 3 46 -12 24 -7 -10 -12 -11 -15 -4 -3 7 -15 10 -27 7 -21 -4 -22 -4
-3 11 11 9 25 16 31 16 16 0 73 29 80 41 4 5 11 6 17 3 6 -4 13 -3 17 2 18 26
81 44 81 24 0 -6 19 2 41 17 40 26 42 27 55 8 23 -31 28 -8 6 27 -42 67 -82
94 -82 55 0 -7 4 -6 10 3 8 13 10 12 10 -2 0 -15 -9 -18 -62 -18 -35 1 -108 7
-163 14 -55 7 -103 12 -107 9 -5 -2 -8 1 -8 7 0 11 -39 9 -107 -6 -34 -7 -93
11 -93 28 0 5 -13 14 -30 19 -38 14 -39 56 0 71 14 5 44 18 68 30 23 11 49 17
57 14 10 -3 15 1 15 14 0 19 32 36 49 25 19 -11 111 -7 127 6 23 19 56 88 51
107 -3 12 -7 9 -16 -13 -31 -80 -62 -106 -100 -86 -41 23 -177 8 -207 -22 -26
-25 -138 16 -166 61 -11 18 -23 31 -26 28 -11 -12 -7 -63 10 -113 9 -29 14
-53 10 -53 -13 0 -28 15 -39 40 -9 19 -12 21 -12 7 -1 -24 -21 -12 -21 12 0
10 -6 24 -14 31 -8 6 -12 18 -9 26 3 8 0 14 -6 14 -6 0 -10 3 -9 8 1 4 -7 23
-17 42 -24 42 -29 195 -7 209 7 4 12 23 11 42 0 19 3 52 8 74 8 39 10 40 44
37 25 -2 38 1 42 12 3 8 32 23 64 33 32 9 61 21 64 26 4 5 10 4 13 -2 13 -20
23 -12 40 33 23 61 16 146 -16 180 -13 14 -36 39 -51 56 -16 16 -25 30 -21 30
3 0 1 7 -6 15 -7 9 -27 15 -44 14 -34 -2 -90 24 -78 35 4 4 -4 5 -18 2 -16 -4
-36 1 -58 14 -36 22 -34 45 4 37 27 -5 32 10 8 27 -11 9 -15 32 -16 97 -1 47
3 93 8 102 6 10 7 39 4 65 -3 28 -1 60 7 79 8 20 9 33 3 35 -12 4 -23 78 -12
78 4 0 8 8 9 18 1 9 3 23 5 31 4 17 71 81 85 81 5 0 23 16 39 35 16 19 35 33
41 30 7 -2 12 1 10 7 -3 13 49 43 91 53 18 3 30 10 27 15 -3 5 16 8 41 8 27 0
50 6 55 13 5 9 11 10 21 2 7 -6 25 -13 41 -15 22 -4 27 -2 22 12 -4 11 0 17
12 17 10 0 20 -3 23 -6 3 -3 16 -12 29 -19 23 -13 23 -13 19 13 -5 26 -5 26
13 6 11 -11 19 -23 19 -26z m1720 -773 c17 -14 23 -30 24 -63 1 -40 -1 -44
-24 -46 -79 -7 -148 -5 -165 5 -11 6 -14 12 -7 12 7 0 10 4 7 10 -15 25 72
100 116 100 15 0 37 -8 49 -18z m-2083 -267 c24 -16 32 -39 11 -33 -102 28
-138 42 -126 50 18 11 86 1 115 -17z m-12 -55 c18 -7 18 -9 -9 -19 -32 -13
-41 -9 -33 14 7 17 13 17 42 5z m1555 -35 c0 -5 -5 -3 -10 5 -5 8 -10 20 -10
25 0 6 5 3 10 -5 5 -8 10 -19 10 -25z m27 -7 c-3 -8 -6 -5 -6 6 -1 11 2 17 5
13 3 -3 4 -12 1 -19z m-1537 -4 c0 -8 -5 -12 -10 -9 -6 4 -8 11 -5 16 9 14 15
11 15 -7z m1560 -84 c0 -5 -4 -10 -10 -10 -5 0 -10 5 -10 10 0 6 5 10 10 10 6
0 10 -4 10 -10z m1004 -76 c3 -8 2 -12 -4 -9 -6 3 -10 10 -10 16 0 14 7 11 14
-7z m49 -51 c5 -26 4 -26 -9 -9 -7 10 -11 23 -8 27 8 14 11 11 17 -18z m-19
-228 c-4 -8 -8 -15 -10 -15 -2 0 -4 7 -4 15 0 8 4 15 10 15 5 0 7 -7 4 -15z
m-827 -27 c-3 -7 -5 -2 -5 12 0 14 2 19 5 13 2 -7 2 -19 0 -25z m-1871 -205
c4 -10 6 -24 5 -32 -1 -8 2 -10 10 -5 7 4 10 3 6 -3 -10 -16 19 -88 33 -85 8
2 10 -3 7 -12 -4 -9 -3 -15 1 -14 14 4 53 -23 47 -33 -4 -5 -1 -9 6 -9 10 0
10 -3 1 -12 -7 -7 -12 -22 -12 -33 0 -34 -11 -37 -36 -7 -13 15 -24 29 -25 32
0 3 -2 12 -4 20 -2 8 -6 24 -8 35 -3 11 -15 37 -26 56 -12 20 -23 55 -26 78
-4 42 7 55 21 24z m570 -155 c-4 -29 -18 -39 -47 -33 -22 5 -29 3 -29 -9 0
-16 -73 -42 -89 -32 -5 3 -11 -1 -15 -9 -9 -26 -106 -18 -106 9 0 6 -12 12
-27 11 -21 0 -29 5 -31 21 -3 18 5 22 68 33 53 10 74 10 84 1 10 -7 16 -8 21
0 8 12 65 13 85 0 8 -5 19 -5 25 0 5 4 21 10 35 13 14 2 26 5 27 6 1 0 0 -5
-1 -11z m1084 -128 c0 -5 -4 -10 -10 -10 -5 0 -10 5 -10 10 0 6 5 10 10 10 6
0 10 -4 10 -10z m-30 -25 c0 -9 -9 -15 -22 -14 -13 0 -17 3 -10 6 6 2 10 9 6
14 -3 5 2 9 10 9 9 0 16 -7 16 -15z m30 -27 c0 -19 -2 -20 -10 -8 -13 19 -13
30 0 30 6 0 10 -10 10 -22z m1077 -20 c-3 -7 -5 -2 -5 12 0 14 2 19 5 13 2 -7
2 -19 0 -25z m-1109 -8 c-9 -14 -16 -16 -25 -8 -18 15 -16 26 5 31 26 6 33 -2
20 -23z m35 -47 c-5 -41 -33 -106 -33 -78 0 6 -5 3 -10 -5 -6 -8 -8 -27 -5
-41 4 -18 -6 -49 -36 -105 -23 -43 -47 -86 -54 -94 -14 -17 -48 -108 -50 -131
-1 -8 -16 -36 -33 -61 -35 -50 -41 -68 -17 -48 11 9 15 10 15 1 0 -7 -7 -19
-15 -27 -8 -9 -15 -20 -15 -26 0 -6 6 -6 15 2 13 10 15 9 15 -12 0 -13 -7 -51
-16 -83 -9 -33 -16 -73 -15 -90 0 -27 -19 -122 -34 -170 -5 -15 -2 -13 10 5
l16 25 -5 -25 c-2 -14 -8 -43 -12 -65 -4 -22 -12 -43 -18 -47 -8 -6 -8 -8 1
-8 8 0 7 -15 -3 -54 -19 -72 -24 -107 -30 -193 -5 -94 -16 -118 -61 -143 -108
-61 -155 -89 -220 -135 -60 -41 -78 -61 -113 -123 -23 -40 -40 -74 -39 -76 2
-1 78 -56 169 -122 171 -124 395 -328 710 -649 233 -238 431 -412 636 -560
221 -159 265 -189 321 -222 34 -20 60 -40 57 -45 -3 -4 1 -5 9 -2 9 3 23 -6
34 -23 26 -37 74 -133 66 -133 -3 0 -1 -6 5 -13 28 -33 75 -304 86 -492 2 -38
7 -77 10 -86 4 -10 6 -23 5 -30 -4 -21 10 -152 27 -251 8 -48 11 -99 8 -114
-5 -21 -4 -25 6 -19 10 6 11 0 7 -26 -4 -19 0 -61 8 -94 8 -33 14 -69 14 -80
1 -17 -1 -18 -10 -5 -9 12 -9 11 -4 -5 4 -11 8 -27 10 -35 1 -8 0 -10 -2 -4
-2 7 -13 10 -24 7 -14 -4 -19 0 -19 13 -1 18 -1 18 -11 1 -13 -22 -29 -22 -30
1 0 14 -3 13 -16 -6 -12 -18 -25 -22 -65 -22 -37 0 -50 4 -55 17 -11 29 -30
45 -36 30 -2 -6 -9 4 -14 23 -12 44 -27 45 -31 3 -4 -42 -22 -43 -22 -1 0 25
-3 29 -12 20 -9 -9 -15 -9 -26 0 -11 10 -18 7 -34 -12 l-20 -25 6 32 c5 33 -7
53 -20 32 -5 -8 -3 -9 6 -4 8 5 11 3 8 -6 -2 -8 -19 -15 -38 -17 -31 -3 -32
-2 -16 13 18 19 21 35 6 35 -24 0 -35 -24 -32 -71 l4 -49 -29 6 c-20 4 -35 1
-45 -10 -13 -12 -22 -13 -54 -3 -22 6 -42 15 -45 20 -4 5 -23 7 -44 5 -33 -4
-38 -1 -47 23 -7 21 -17 29 -41 31 -34 3 -48 24 -20 30 10 3 -3 8 -29 12 -27
5 -48 12 -48 16 0 4 -9 10 -21 13 -12 3 -18 10 -14 17 4 7 -2 14 -14 17 -12 3
-21 11 -21 18 0 8 -8 11 -19 8 -14 -4 -23 4 -36 29 -9 18 -38 49 -65 68 -27
19 -48 37 -47 40 3 11 -36 60 -44 55 -10 -7 -49 31 -49 48 0 6 -25 39 -55 71
-30 33 -52 63 -49 67 2 4 0 10 -6 14 -6 4 -8 11 -5 16 4 5 1 9 -5 9 -6 0 -13
7 -17 17 -3 9 -21 31 -40 50 -18 19 -33 42 -33 50 0 8 -11 24 -25 35 -14 11
-25 27 -25 36 0 10 -9 23 -20 30 -13 8 -20 23 -20 42 0 18 -5 30 -13 30 -8 0
-24 20 -36 45 -12 25 -25 45 -29 45 -4 0 -13 12 -19 28 -7 15 -24 40 -38 56
-14 16 -25 34 -25 39 0 6 -7 17 -15 26 -55 58 -72 80 -89 114 -11 20 -23 37
-28 37 -4 0 -8 6 -8 14 0 8 -9 22 -21 30 -12 8 -18 19 -15 25 5 7 1 8 -10 4
-11 -4 -15 -2 -12 8 2 7 -12 35 -31 61 -20 26 -47 69 -61 95 -14 26 -32 53
-40 60 -8 7 -10 13 -5 13 7 0 7 3 0 8 -5 4 -21 29 -35 56 -14 26 -31 50 -37
53 -7 3 -13 10 -13 17 0 6 -9 18 -20 26 -11 8 -20 22 -20 30 0 9 -13 32 -30
50 -16 18 -30 37 -30 41 0 5 -12 20 -27 35 -18 18 -23 29 -15 32 21 7 13 22
-12 22 -17 0 -28 9 -38 30 -7 16 -19 32 -26 35 -7 3 -10 0 -7 -5 3 -6 2 -10
-3 -10 -6 0 -12 6 -15 13 -3 8 -22 22 -44 32 -21 10 -53 30 -72 44 -32 24 -35
24 -61 9 -19 -11 -42 -14 -73 -11 -33 4 -50 1 -61 -10 -12 -12 -13 -17 -3 -20
6 -3 2 -6 -10 -6 -13 -1 -23 3 -23 8 0 5 -27 7 -60 4 -34 -3 -60 -2 -60 3 0
16 -84 3 -97 -14 -20 -25 -15 -42 12 -42 32 0 53 -35 28 -48 -44 -22 -72 -22
-92 -1 -11 12 -18 26 -15 30 7 12 -17 23 -71 31 -152 22 -155 23 -186 60 -17
19 -45 66 -63 104 -17 38 -51 98 -75 134 -38 58 -42 69 -36 105 4 22 8 64 8
93 2 48 -1 55 -30 78 -36 28 -41 58 -22 127 11 39 -2 74 -22 61 -5 -3 -9 2 -9
10 0 13 -3 13 -27 0 -16 -7 -40 -14 -54 -14 -14 0 -48 -7 -74 -15 -27 -8 -52
-12 -57 -9 -4 3 -8 0 -8 -6 0 -7 -9 -9 -22 -5 -16 4 -19 3 -10 -3 23 -16 -60
-42 -130 -41 -35 0 -94 -7 -133 -16 -68 -16 -94 -20 -180 -24 -26 -1 -35 -4
-27 -10 25 -16 -131 -23 -167 -8 l-33 14 45 6 c71 10 97 26 97 59 0 25 -2 27
-19 18 -26 -13 -98 -13 -107 1 -3 6 -22 9 -40 7 -34 -4 -41 5 -25 31 5 8 14
10 21 6 8 -5 11 -4 7 2 -17 28 86 76 223 104 141 30 198 45 270 72 36 14 100
30 142 37 119 18 250 56 327 95 39 19 110 46 158 60 79 23 105 26 247 25 115
0 185 -5 255 -20 53 -10 163 -31 246 -45 82 -14 176 -37 209 -50 33 -13 62
-22 64 -20 3 2 -5 41 -16 87 -37 151 -51 231 -62 378 -6 80 -17 186 -24 235
-18 117 -19 182 -3 192 7 4 14 18 14 31 2 47 4 57 13 72 9 13 11 13 20 0 7
-11 8 -6 4 17 -5 23 0 41 15 66 27 44 27 72 -1 91 -16 11 -18 16 -8 17 77 5
111 12 158 34 30 14 61 25 68 25 8 0 14 4 14 9 0 30 136 81 250 94 27 3 154
73 158 88 4 11 2 12 -9 2 -7 -7 -17 -13 -22 -13 -4 0 34 41 87 91 93 90 128
133 86 106 -11 -6 -20 -17 -20 -24 0 -7 -5 -13 -11 -13 -6 0 -23 -9 -37 -21
-19 -14 -28 -17 -31 -8 -2 7 3 17 11 23 8 6 18 22 21 36 9 34 74 106 80 88 2
-7 3 1 1 17 -3 22 -1 26 6 15 9 -14 11 -13 14 9 2 16 14 23 26 16 8 -5 6 -14
-5 -31 -17 -27 -12 -46 9 -38 8 3 27 23 42 45 14 21 28 39 30 39 2 0 0 -21 -3
-47z m-4767 -250 c10 -10 26 -27 34 -38 14 -19 14 -19 -5 -5 -11 8 -26 21 -33
28 -7 6 -23 12 -35 13 -21 0 -21 1 -2 9 11 5 20 9 21 9 1 1 10 -7 20 -16z
m2227 1 c-6 -15 -52 -39 -60 -31 -3 4 56 46 64 47 1 0 0 -7 -4 -16z m-3383 -4
c0 -5 -4 -10 -10 -10 -5 0 -10 5 -10 10 0 6 5 10 10 10 6 0 10 -4 10 -10z
m434 -14 c-3 -9 -10 -16 -15 -16 -5 0 -4 9 3 20 14 22 21 20 12 -4z m874 -17
c2 -5 10 -9 18 -9 8 0 14 -4 14 -9 0 -15 -18 -23 -25 -11 -3 6 -23 19 -43 30
l-37 21 35 -7 c19 -4 37 -10 38 -15z m-1231 -15 c-3 -3 -12 -4 -19 -1 -8 3 -5
6 6 6 11 1 17 -2 13 -5z m1289 -23 c0 -11 -5 -17 -13 -14 -17 6 -17 20 0 26 6
3 12 6 12 6 1 1 1 -7 1 -18z m4234 9 c0 -5 -5 -10 -11 -10 -5 0 -7 5 -4 10 3
6 8 10 11 10 2 0 4 -4 4 -10z m-5310 -10 c0 -5 -4 -10 -10 -10 -5 0 -10 5 -10
10 0 6 5 10 10 10 6 0 10 -4 10 -10z m654 -6 c5 -14 4 -15 -9 -4 -17 14 -19
20 -6 20 5 0 12 -7 15 -16z m-334 -20 c0 -8 -4 -12 -10 -9 -5 3 -10 10 -10 16
0 5 5 9 10 9 6 0 10 -7 10 -16z m875 -44 c-27 -12 -43 -12 -25 0 8 5 22 9 30
9 10 0 8 -3 -5 -9z m-800 -30 c3 -5 1 -10 -4 -10 -6 0 -11 5 -11 10 0 6 2 10
4 10 3 0 8 -4 11 -10z m321 -57 c-25 -32 -56 -68 -69 -80 l-25 -23 -47 21
c-57 25 -109 21 -178 -12 -40 -20 -48 -21 -63 -8 -17 14 -84 113 -84 124 0 3
20 5 45 5 29 0 45 4 46 13 0 9 2 9 6 -1 2 -6 8 -10 12 -8 4 3 76 8 161 12 85
3 157 8 159 10 2 2 22 4 43 4 l39 0 -45 -57z m-478 -49 c40 -70 49 -105 20
-76 -21 21 -28 13 -28 -32 0 -31 -5 -46 -16 -50 -28 -11 -45 -6 -43 12 4 45
-2 72 -16 72 -11 0 -15 -12 -15 -50 0 -38 -4 -50 -15 -50 -13 0 -15 -11 -13
-62 l3 -63 91 1 c85 0 94 3 124 28 47 39 103 65 154 72 78 11 169 -32 181 -86
8 -37 21 -46 42 -28 14 11 15 10 7 -12 -14 -39 -9 -148 8 -168 16 -19 13 -52
-5 -52 -7 0 -25 14 -40 30 -16 17 -33 28 -38 24 -14 -9 -11 6 9 34 46 66 33
83 -18 25 -38 -43 -60 -91 -60 -130 1 -26 1 -27 12 -8 6 11 18 28 26 38 15 17
18 15 54 -20 41 -40 49 -78 26 -128 -21 -46 -68 -26 -113 49 -9 16 -24 16
-215 1 -113 -8 -224 -17 -247 -21 l-42 -5 -3 48 c-3 44 -5 48 -31 51 -16 2
-36 -3 -46 -12 -10 -9 -22 -12 -30 -7 -10 7 -9 9 3 14 11 4 16 19 16 44 0 39
36 464 46 540 l5 42 52 4 c121 8 108 14 155 -69z m92 -84 c0 -5 -5 -10 -11
-10 -5 0 -7 5 -4 10 3 6 8 10 11 10 2 0 4 -4 4 -10z m-30 -40 c0 -4 -7 -10
-15 -14 -11 -4 -15 2 -15 21 0 21 2 24 15 13 8 -7 15 -16 15 -20z m410 20 c0
-5 -7 -10 -16 -10 -8 0 -12 5 -9 10 3 6 10 10 16 10 5 0 9 -4 9 -10z m3953
-111 c-4 -16 -8 -17 -14 -7 -13 19 -11 28 5 28 9 0 12 -7 9 -21z m-3674 -106
c14 -52 22 -100 15 -86 -3 7 -12 9 -19 7 -9 -4 -16 4 -20 23 -4 15 -11 38 -16
51 -13 34 -11 42 11 42 14 0 22 -10 29 -37z m428 -35 c-3 -8 -6 -5 -6 6 -1 11
2 17 5 13 3 -3 4 -12 1 -19z m40 -40 c-3 -8 -6 -5 -6 6 -1 11 2 17 5 13 3 -3
4 -12 1 -19z m-507 -39 c11 -21 25 -39 30 -39 15 0 12 -16 -5 -34 -8 -8 -15
-19 -15 -25 0 -6 -9 -15 -20 -21 -18 -9 -20 -21 -20 -95 0 -57 4 -85 13 -89 6
-3 -8 -2 -33 1 -25 3 -62 14 -83 25 -22 11 -41 17 -44 14 -3 -3 -12 1 -19 9
-19 18 -18 77 2 101 8 10 13 14 11 9 -3 -6 12 -10 37 -10 31 0 42 4 39 13 -3
6 2 12 12 12 9 0 14 -4 11 -9 -4 -5 4 -7 16 -3 21 5 21 6 -7 28 -43 34 -43 66
1 119 20 25 40 42 45 39 5 -3 18 -23 29 -45z m546 -173 c28 -28 34 -41 34 -77
-1 -41 -2 -43 -15 -25 -8 11 -15 27 -15 36 0 9 -13 31 -30 50 -16 19 -29 38
-30 43 -1 17 24 5 56 -27z m-936 -76 c0 -5 -5 -10 -11 -10 -5 0 -7 5 -4 10 3
6 8 10 11 10 2 0 4 -4 4 -10z m9 -53 c-2 -2 -38 -22 -79 -45 -72 -39 -81 -41
-205 -51 -72 -6 -154 -13 -182 -17 l-53 -5 0 33 c0 18 4 38 8 44 4 7 102 19
257 31 231 18 266 19 254 10z m129 -6 c3 -8 -1 -12 -9 -9 -7 2 -15 10 -17 17
-3 8 1 12 9 9 7 -2 15 -10 17 -17z m891 -26 c23 -12 30 -22 33 -55 3 -36 2
-39 -9 -24 -7 10 -13 12 -13 6 0 -14 -21 -12 -32 3 -5 6 -8 4 -8 -5 -1 -16
-16 15 -30 63 -7 23 -6 27 11 27 11 0 33 -7 48 -15z m-808 -8 c-1 -12 -15 -9
-19 4 -3 6 1 10 8 8 6 -3 11 -8 11 -12z m-47 -12 c-6 -14 -44 -22 -44 -10 0 4
29 19 47 24 1 1 0 -6 -3 -14z m-720 -40 c-4 -8 -11 -15 -16 -15 -6 0 -5 6 2
15 7 8 14 15 16 15 2 0 1 -7 -2 -15z m1046 -22 c0 -12 -3 -14 -8 -7 -4 7 -18
14 -32 17 -21 4 -20 4 8 6 24 1 32 -3 32 -16z m77 1 c-3 -3 -12 -4 -19 -1 -8
3 -5 6 6 6 11 1 17 -2 13 -5z m-100 -10 c-3 -3 -12 -4 -19 -1 -8 3 -5 6 6 6
11 1 17 -2 13 -5z m113 -14 c-19 -13 -30 -13 -30 0 0 6 10 10 23 10 18 0 19
-2 7 -10z m572 -82 l-5 -31 -19 24 c-13 16 -18 18 -14 7 3 -10 2 -17 -2 -17
-26 4 -45 -18 -47 -55 0 -5 -5 -11 -11 -13 -17 -6 -24 45 -7 51 7 3 12 11 11
18 -2 7 3 12 10 11 14 -3 16 13 2 22 -13 8 -13 45 0 45 5 0 7 7 3 16 -3 10 11
4 39 -16 39 -28 44 -35 40 -62z m-952 17 c-4 -25 -9 -47 -11 -49 -6 -5 -407
-36 -449 -35 -19 0 -29 3 -22 6 6 2 12 12 13 21 0 11 2 13 6 4 4 -9 22 -3 69
22 61 34 70 36 221 47 87 6 160 16 161 20 2 5 7 9 11 9 4 0 5 -20 1 -45z m134
36 c4 -5 -3 -7 -14 -4 -23 6 -26 13 -6 13 8 0 17 -4 20 -9z m701 -159 c-12
-12 -35 -10 -35 3 0 8 7 11 20 8 12 -3 18 -8 15 -11z m-1907 -22 c3 -7 0 -10
-7 -6 -15 10 -14 -17 1 -32 8 -8 8 -12 1 -12 -13 0 -34 55 -25 64 9 9 25 2 30
-14z m-81 -22 c12 -19 33 -82 28 -86 -2 -2 -6 6 -10 18 -5 14 -10 18 -18 12
-7 -5 -22 -13 -34 -16 -21 -7 -22 -4 -19 23 5 49 35 76 53 49z m1980 -10 c-3
-8 -6 -5 -6 6 -1 11 2 17 5 13 3 -3 4 -12 1 -19z m-251 -47 c-10 -16 -31 -14
-46 4 -10 12 -10 18 0 31 12 13 15 13 33 -4 11 -11 16 -25 13 -31z m280 -58
c-7 -7 -26 7 -26 19 0 6 6 6 15 -2 9 -7 13 -15 11 -17z m-2096 -93 c0 -5 -4
-10 -10 -10 -5 0 -10 5 -10 10 0 6 5 10 10 10 6 0 10 -4 10 -10z m2196 -59
c-4 -5 0 -11 6 -14 10 -4 11 -7 1 -18 -11 -11 -13 -10 -13 4 0 9 -5 17 -11 17
-5 0 -7 5 -4 10 3 6 11 10 16 10 6 0 8 -4 5 -9z m-18 -43 c-2 -5 -8 -9 -13 -9
-5 0 -11 4 -13 9 -1 5 4 9 13 9 9 0 14 -4 13 -9z m-41 -14 c-3 -3 -12 -4 -19
-1 -8 3 -5 6 6 6 11 1 17 -2 13 -5z m-110 -19 c0 -17 -13 -20 -21 -6 -4 5 0
12 6 14 7 3 13 6 14 6 0 1 1 -6 1 -14z m4610 -82 c-3 -10 -5 -4 -5 12 0 17 2
24 5 18 2 -7 2 -21 0 -30z m-4745 -7 c3 -30 2 -33 -13 -25 -24 12 -32 11 -23
-3 4 -7 3 -8 -4 -4 -18 11 -15 36 4 29 10 -4 17 1 21 16 7 29 10 27 15 -13z
m-179 5 c-3 -10 0 -22 6 -25 6 -4 11 -1 11 7 0 8 8 21 18 28 14 11 15 11 5 -1
-7 -8 -13 -25 -13 -38 0 -13 -4 -20 -10 -17 -5 3 -10 0 -10 -7 0 -9 -3 -9 -10
2 -13 20 -13 6 1 -23 8 -18 8 -30 0 -43 -9 -17 -10 -18 -11 -1 0 9 -5 17 -11
17 -7 0 -9 11 -6 28 5 27 4 28 -31 24 -30 -2 -34 -1 -20 8 9 6 15 17 12 24 -3
8 -1 17 5 21 6 3 11 1 11 -4 0 -6 6 -11 14 -11 8 0 17 -6 20 -12 3 -7 4 -1 1
15 -4 19 -1 27 9 27 9 0 12 -7 9 -19z m72 -1 c-3 -5 -12 -10 -18 -10 -7 0 -6
4 3 10 19 12 23 12 15 0z m39 -6 c3 -8 2 -12 -4 -9 -6 3 -10 -1 -10 -9 0 -9
-4 -16 -10 -16 -14 0 -13 23 2 38 15 15 15 15 22 -4z m113 -16 c-3 -8 -6 -5
-6 6 -1 11 2 17 5 13 3 -3 4 -12 1 -19z m-162 -8 c3 -5 -1 -10 -9 -10 -9 0
-16 5 -16 10 0 6 4 10 9 10 6 0 13 -4 16 -10z m242 -22 c-3 -8 -6 -5 -6 6 -1
11 2 17 5 13 3 -3 4 -12 1 -19z m-483 -28 c7 -23 6 -24 -6 -5 -14 23 -21 52
-8 39 4 -5 11 -20 14 -34z m-1543 -45 c39 -44 40 -46 10 -22 -37 31 -71 70
-71 83 0 4 4 4 8 -1 5 -6 29 -32 53 -60z m844 55 c3 -5 2 -10 -4 -10 -5 0 -13
5 -16 10 -3 6 -2 10 4 10 5 0 13 -4 16 -10z m668 -22 c7 -25 1 -38 -18 -38
-18 0 -24 21 -13 43 12 23 24 22 31 -5z m537 1 c0 -5 -6 -9 -13 -9 -8 0 -14 6
-14 14 0 8 6 12 14 9 7 -3 13 -9 13 -14z m-1946 -25 c9 -24 7 -28 -9 -14 -17
14 -20 30 -6 30 5 0 12 -7 15 -16z m1576 12 c0 -2 -7 -6 -15 -10 -8 -3 -15 -1
-15 4 0 6 7 10 15 10 8 0 15 -2 15 -4z m393 -16 c3 -11 1 -23 -4 -26 -5 -3 -9
6 -9 20 0 31 6 34 13 6z m-23 -11 c0 -5 -4 -8 -9 -4 -5 3 -12 1 -16 -5 -3 -5
-13 -10 -21 -10 -12 0 -13 3 -2 15 15 17 48 20 48 4z m-573 -15 c-3 -3 -12 -4
-19 -1 -8 3 -5 6 6 6 11 1 17 -2 13 -5z m-707 -35 c0 -17 -3 -19 -14 -10 -11
9 -15 8 -20 -4 -7 -19 -21 -12 -36 16 -10 17 -7 19 30 19 34 0 40 -3 40 -21z
m-470 -29 c8 -5 13 -10 10 -11 -49 -10 -70 -9 -70 5 0 18 36 21 60 6z m1793
-37 c52 -63 67 -74 90 -68 19 5 20 5 4 -5 -24 -16 -48 -5 -72 30 -24 37 -35
38 -35 5 0 -14 -4 -25 -9 -25 -4 0 -6 11 -4 24 3 13 0 32 -5 43 -10 17 -11 17
-18 -2 -4 -11 -27 -41 -51 -68 -24 -26 -41 -52 -38 -57 12 -19 43 -10 75 23
22 21 29 25 22 11 -14 -26 -55 -54 -81 -54 -37 0 -32 30 14 79 25 26 45 52 45
58 0 11 21 33 32 33 5 0 18 -12 31 -27z m467 -12 c-1 -9 -10 -27 -21 -41 l-21
-24 -19 24 c-25 34 -24 47 9 64 30 16 52 6 52 -23z m-215 9 c3 -6 -1 -7 -9 -4
-18 7 -21 14 -7 14 6 0 13 -4 16 -10z m-75 -15 c-7 -8 -17 -15 -23 -15 -6 0
-2 7 9 15 25 19 30 19 14 0z m-530 -6 c0 -6 -11 -20 -25 -31 -14 -11 -25 -28
-25 -39 0 -10 -4 -19 -10 -19 -5 0 -10 -4 -10 -10 0 -5 7 -7 15 -4 9 4 15 0
15 -10 0 -21 -13 -20 -34 3 -26 29 -7 83 39 109 25 15 35 15 35 1z m73 -2 c20
-2 23 -27 3 -27 -8 0 -26 4 -40 10 -33 12 -35 35 -3 25 12 -4 30 -7 40 -8z
m-1463 -1 c0 -3 -4 -8 -10 -11 -5 -3 -10 -1 -10 4 0 6 5 11 10 11 6 0 10 -2
10 -4z m51 -10 c-9 -11 -9 -15 1 -19 8 -4 7 -6 -4 -6 -20 -1 -21 0 -12 23 3 9
11 16 16 16 6 0 6 -6 -1 -14z m1959 -18 c0 -19 -16 -5 -17 14 -2 18 0 20 7 8
5 -8 10 -18 10 -22z m-1870 -14 c0 -8 -4 -14 -10 -14 -5 0 -10 4 -10 9 0 5 -3
18 -7 28 -6 16 -5 16 10 4 9 -7 17 -20 17 -27z m990 5 c0 -18 4 -20 27 -14 26
6 27 6 10 -13 -19 -21 -22 -42 -7 -42 6 0 10 -4 10 -10 0 -5 -12 -10 -26 -10
-17 0 -28 -6 -31 -20 -6 -24 -19 -26 -27 -4 -4 11 -14 15 -31 12 -29 -6 -31
-1 -8 24 13 14 14 21 5 30 -18 18 -14 30 7 23 14 -4 25 2 38 19 22 31 33 33
33 5z m-278 -74 c33 9 45 -11 22 -36 -9 -10 -14 -19 -9 -19 4 0 2 -6 -4 -14
-7 -8 -21 -12 -31 -9 -23 6 -23 7 -9 36 l10 22 -18 -21 c-17 -20 -21 -20 -65
-7 -27 8 -48 20 -48 27 0 7 14 27 32 45 l31 32 32 -31 c25 -24 38 -30 57 -25z
m54 20 c-5 -14 -9 -15 -21 -5 -12 10 -13 16 -4 27 15 18 34 1 25 -22z m-1124
-29 c10 6 10 5 0 -8 -7 -8 -10 -23 -6 -32 3 -9 1 -16 -5 -16 -6 0 -11 6 -11
14 0 8 -4 16 -9 18 -5 2 -7 16 -4 32 6 29 6 29 14 7 6 -14 13 -20 21 -15z
m2340 -2 c-6 -29 -32 -54 -58 -54 -13 0 -26 -4 -29 -10 -3 -5 -13 -10 -21 -10
-8 0 -14 5 -14 10 0 6 10 10 21 10 18 0 19 3 9 15 -6 8 -9 19 -5 25 3 5 1 10
-4 10 -6 0 -11 -9 -11 -20 0 -11 -6 -20 -13 -20 -9 0 -12 10 -9 31 4 30 7 31
41 27 20 -3 45 -2 56 3 28 11 41 5 37 -17z m-2722 1 c0 -8 -4 -15 -10 -15 -5
0 -7 7 -4 15 4 8 8 15 10 15 2 0 4 -7 4 -15z m2040 2 c0 -9 -12 -11 -40 -9
-22 2 -40 8 -40 13 0 5 18 9 40 9 26 0 40 -5 40 -13z m737 -24 c-3 -10 -5 -4
-5 12 0 17 2 24 5 18 2 -7 2 -21 0 -30z m-1597 23 c0 -3 -4 -8 -10 -11 -5 -3
-10 -1 -10 4 0 6 5 11 10 11 6 0 10 -2 10 -4z m1385 -6 c3 -5 2 -17 -3 -26 -8
-14 -10 -12 -14 10 -5 26 5 35 17 16z m-1726 -26 c12 -15 21 -37 21 -49 0 -35
10 -36 37 -4 14 16 39 37 55 45 31 16 78 12 78 -6 0 -13 -7 -13 -31 1 -25 13
-59 -7 -104 -60 -68 -80 -81 -86 -91 -47 -3 13 -18 33 -34 44 -32 24 -46 67
-29 88 20 24 75 17 98 -12z m1571 16 c-13 -8 -12 -10 3 -10 10 0 15 -4 12 -10
-4 -6 7 -10 27 -9 18 1 25 3 15 6 -14 4 -16 8 -6 19 8 10 15 11 24 4 7 -6 19
-9 26 -8 8 2 15 -7 17 -19 3 -21 1 -22 -55 -17 -36 4 -69 1 -88 -7 -16 -7 -39
-14 -50 -15 -11 -1 -38 -8 -60 -14 -66 -19 -98 -24 -92 -12 4 5 -2 12 -12 15
-13 3 -23 -3 -31 -22 -7 -15 -14 -21 -17 -13 -3 6 -14 12 -25 12 -14 0 -18 -5
-15 -15 5 -11 1 -12 -20 -4 -19 7 -30 6 -42 -4 -16 -14 -30 -14 -79 -2 -15 4
-36 -2 -59 -17 -20 -12 -33 -16 -29 -10 4 7 5 12 2 12 -2 0 -13 3 -23 6 -15 5
-15 4 -3 -5 13 -9 12 -11 -5 -12 -11 -1 -28 -1 -37 0 -10 1 -18 -3 -18 -9 0
-8 -6 -7 -22 1 -17 9 -20 9 -16 -2 4 -10 -4 -14 -26 -14 -30 -1 -60 -5 -161
-25 -27 -5 -70 -11 -95 -14 -25 -3 -69 -9 -98 -14 -29 -5 -71 -9 -93 -8 -21 1
-39 -2 -39 -6 0 -4 -10 -8 -22 -8 -48 0 -94 -6 -106 -14 -7 -4 -12 -2 -12 3 0
8 -6 8 -17 2 -17 -9 -213 -37 -280 -40 -18 -1 -43 -5 -55 -9 -13 -5 -34 -8
-48 -8 -14 1 -28 -3 -31 -7 -3 -5 -42 -11 -85 -14 l-79 -6 3 49 c5 60 8 64 58
68 21 2 59 8 84 14 45 11 260 40 335 47 22 2 61 8 87 14 25 6 84 12 131 13 47
2 80 6 73 10 -6 4 3 7 19 7 17 0 46 3 65 5 19 3 61 6 93 7 31 0 57 5 57 9 0 5
12 9 28 8 15 -1 36 2 47 6 20 8 20 7 1 -8 -28 -23 2 -21 34 1 14 10 33 16 43
15 10 -2 24 1 30 7 7 5 38 8 70 6 31 -2 57 1 57 6 0 5 9 9 21 9 15 0 19 -5 15
-15 -8 -22 17 -18 32 5 11 18 20 20 68 15 31 -2 60 -7 65 -11 5 -3 8 0 7 8 -2
10 14 13 64 13 36 0 64 3 62 6 -2 4 27 9 64 13 37 4 86 10 110 13 32 4 42 3
40 -7 -2 -7 3 -15 11 -18 8 -3 11 0 7 7 -11 18 3 31 32 31 21 0 24 -2 12 -10z
m-1240 -14 c0 -3 -4 -8 -10 -11 -5 -3 -10 -1 -10 4 0 6 5 11 10 11 6 0 10 -2
10 -4z m-1090 -20 c0 -8 -4 -18 -10 -21 -5 -3 -10 3 -10 14 0 12 5 21 10 21 6
0 10 -6 10 -14z m2674 -7 c-9 -15 -44 -11 -38 5 3 8 13 12 25 9 10 -3 16 -9
13 -14z m-2710 -10 c-3 -5 -10 -7 -15 -3 -5 3 -7 10 -3 15 3 5 10 7 15 3 5 -3
7 -10 3 -15z m536 13 c0 -28 -76 -44 -109 -23 -11 7 -7 11 17 18 45 11 92 14
92 5z m536 -27 c28 5 28 5 5 -5 -26 -11 -81 3 -81 21 0 5 11 2 24 -6 15 -10
35 -14 52 -10z m284 -5 c0 -5 -4 -10 -10 -10 -5 0 -10 5 -10 10 0 6 5 10 10
10 6 0 10 -4 10 -10z m1251 -34 c-9 -22 -8 -26 8 -26 14 0 20 -9 23 -35 2 -20
0 -35 -7 -35 -5 0 -4 -4 4 -9 9 -6 10 -11 2 -15 -6 -4 -11 -32 -11 -62 0 -50
-2 -55 -27 -65 -32 -12 -59 -7 -55 10 1 7 -2 9 -8 6 -8 -5 -6 -13 4 -24 9 -10
13 -21 9 -24 -3 -4 -1 -7 6 -7 7 0 9 -4 6 -10 -10 -16 -23 -11 -21 8 4 22 -14
34 -31 20 -7 -5 -18 -8 -25 -5 -7 2 -22 -1 -33 -6 -20 -11 -35 -16 -70 -21
-11 -2 -20 -4 -20 -5 0 -2 -8 -4 -17 -6 -10 -2 -18 0 -18 4 0 5 -13 8 -30 9
-20 0 -31 -5 -35 -19 -4 -10 -10 -19 -15 -19 -5 0 -7 6 -4 14 3 8 1 17 -5 21
-6 3 -9 0 -5 -8 3 -8 -1 -17 -10 -20 -15 -6 -30 18 -20 34 3 5 -2 9 -10 9 -9
0 -13 -6 -10 -14 3 -8 0 -23 -6 -33 -10 -16 -11 -16 -6 0 4 14 -1 17 -27 16
-30 -1 -31 -1 -7 -9 26 -8 25 -9 -30 -15 -26 -3 -30 -2 -15 5 17 7 17 9 3 9
-10 1 -18 8 -18 17 0 8 -4 13 -9 9 -6 -3 -8 -14 -6 -25 2 -11 0 -22 -6 -25 -5
-4 -9 -1 -9 4 0 6 -9 11 -20 11 -11 0 -20 4 -20 9 0 5 -11 9 -25 9 -27 0 -24
-18 3 -19 12 0 13 -2 3 -6 -10 -4 -11 -7 -1 -13 7 -4 9 -13 5 -20 -6 -10 -10
-10 -19 1 -17 23 -63 22 -69 0 -3 -12 -12 -18 -23 -17 -11 2 -26 0 -34 -4 -8
-4 -24 -3 -35 1 -18 9 -18 9 3 5 12 -2 22 0 22 5 0 18 -48 9 -52 -9 -7 -24
-55 -23 -92 2 -15 9 -35 15 -44 13 -12 -3 -10 -5 6 -6 14 -1 21 -5 16 -12 -3
-6 -15 -9 -25 -6 -11 3 -16 1 -13 -4 3 -5 22 -7 42 -4 l37 5 -35 -13 c-31 -11
-36 -11 -48 5 -7 10 -11 22 -7 27 3 6 -4 8 -16 6 -28 -6 -37 -15 -15 -15 9 0
14 -4 11 -10 -3 -5 0 -10 7 -11 10 0 10 -2 0 -6 -6 -2 -9 -10 -5 -16 3 -7 3
-9 -2 -5 -4 4 -15 2 -23 -5 -13 -10 -14 -9 -7 2 6 11 2 13 -18 9 -17 -3 -28 0
-31 9 -3 8 -10 11 -16 8 -5 -3 -10 1 -10 9 0 18 -6 19 -35 6 -19 -8 -19 -9 3
-9 13 -1 21 -5 18 -10 -4 -5 -1 -11 6 -13 8 -3 6 -7 -5 -11 -11 -4 -17 -1 -17
7 0 8 -8 13 -17 12 -10 0 -17 5 -15 12 1 8 -2 11 -7 7 -14 -8 -3 -33 17 -38
10 -3 5 -5 -10 -6 -15 0 -30 -6 -33 -11 -10 -17 -34 8 -28 29 3 12 -2 20 -16
24 -12 3 -21 1 -21 -4 0 -5 6 -9 14 -9 23 0 15 -34 -13 -55 -13 -10 -21 -13
-17 -7 4 7 2 12 -3 12 -6 0 -11 -5 -11 -10 0 -7 -13 -8 -36 -4 -21 4 -35 3
-31 -2 5 -8 -27 -13 -98 -13 -16 0 -31 4 -33 9 -7 21 -23 9 -17 -12 6 -18 5
-21 -5 -11 -10 9 -18 9 -34 1 -36 -20 -71 -16 -49 5 3 4 13 1 21 -6 13 -10 14
-9 10 3 -8 24 -39 25 -45 1 -3 -13 -13 -21 -27 -20 -20 0 -20 1 -1 9 17 7 17
9 3 9 -10 1 -18 7 -19 14 0 10 -2 10 -6 0 -2 -7 -18 -13 -34 -13 -16 0 -29 -5
-29 -11 0 -5 4 -7 10 -4 5 3 10 1 10 -6 0 -10 3 -10 12 -1 15 15 28 16 28 2 0
-6 -3 -9 -7 -9 -5 1 -10 0 -13 -1 -16 -6 -48 -5 -44 2 5 8 -9 12 -33 9 -7 -1
-13 3 -13 9 0 6 -4 8 -10 5 -5 -3 -10 -11 -10 -16 0 -6 4 -8 9 -5 4 3 17 -1
27 -9 17 -13 16 -13 -13 -9 -17 3 -34 0 -38 -6 -9 -15 -25 -12 -25 4 0 8 8 17
18 19 13 4 11 5 -5 6 -14 1 -23 -5 -23 -13 0 -8 -7 -16 -14 -19 -10 -4 -13 -1
-9 9 4 10 -2 14 -18 13 -13 0 -18 -3 -11 -6 17 -7 15 -23 -3 -23 -8 0 -15 5
-15 11 0 15 -53 7 -56 -9 -1 -7 0 -8 3 -2 2 5 13 10 24 10 15 0 17 -3 8 -12
-12 -14 -102 -18 -115 -5 -11 11 -26 9 -19 -3 4 -6 -12 -10 -40 -10 -45 0 -47
1 -41 24 4 18 2 25 -11 28 -13 2 -17 14 -18 47 -1 25 1 39 3 33 2 -7 8 -9 13
-6 6 3 5 11 -2 20 -8 9 -8 18 -2 27 16 19 22 56 11 63 -7 4 -6 9 1 14 7 4 13
20 15 36 2 16 4 32 5 37 0 4 6 7 12 7 8 0 8 -5 -1 -15 -10 -13 -9 -15 9 -15
12 0 19 -4 16 -10 -3 -5 1 -10 9 -10 9 0 16 -4 16 -10 0 -5 7 -10 16 -10 10 0
14 -6 10 -15 -3 -8 -1 -15 4 -15 20 0 10 38 -11 43 -12 3 -18 10 -14 16 3 6 0
11 -7 12 -7 0 -2 4 10 10 13 5 29 6 35 2 6 -4 8 0 4 9 -3 9 -3 19 0 22 8 8 54
-25 47 -35 -3 -5 2 -9 10 -9 9 0 16 -4 16 -10 0 -20 16 -10 17 11 1 15 -2 19
-13 15 -10 -4 -14 -1 -12 6 2 6 14 12 26 13 13 1 21 -3 19 -9 -3 -10 20 -35
33 -36 3 0 6 9 6 20 0 11 -6 20 -13 20 -15 0 -17 26 -3 35 6 4 7 -1 3 -11 -5
-13 -3 -16 10 -11 11 4 17 1 17 -9 0 -8 5 -12 11 -8 6 3 9 14 6 24 -3 11 1 21
9 24 8 3 14 1 14 -4 0 -6 7 -10 15 -10 9 0 12 -6 9 -15 -4 -11 1 -15 17 -15
18 0 20 3 11 12 -17 17 -15 39 3 32 8 -4 15 -1 15 5 0 6 11 11 25 11 14 0 25
-5 25 -11 0 -5 5 -7 10 -4 6 3 10 -1 10 -9 0 -9 5 -16 10 -16 6 0 10 -7 10
-15 0 -8 5 -15 10 -15 13 0 13 37 0 45 -18 11 -11 23 10 18 11 -3 20 -12 20
-19 0 -8 7 -14 16 -14 8 0 12 -4 9 -10 -3 -5 4 -10 15 -10 16 0 20 -5 16 -15
-3 -8 -1 -15 4 -15 6 0 10 9 10 20 0 11 -4 20 -10 20 -5 0 -10 7 -10 16 0 12
-6 15 -21 11 -15 -4 -19 -2 -15 10 3 8 6 19 6 24 0 6 6 7 13 2 22 -14 40 -12
54 5 8 11 12 12 13 5 0 -7 7 -13 15 -13 8 0 15 -7 15 -15 0 -8 6 -14 13 -12 6
1 11 -4 10 -10 -2 -7 2 -13 7 -13 6 0 10 9 10 20 0 11 -4 20 -10 20 -5 0 -10
7 -10 15 0 13 4 14 20 5 12 -6 18 -16 14 -23 -4 -7 -4 -9 0 -5 5 4 21 -7 37
-23 16 -17 38 -28 51 -28 l23 2 -23 4 c-15 3 -22 10 -18 19 3 8 1 14 -4 14
-14 0 -50 37 -50 51 0 6 7 8 16 5 9 -3 20 -6 25 -6 4 0 6 -7 3 -15 -4 -8 -2
-15 4 -15 5 0 12 9 15 20 4 14 0 20 -11 21 -15 1 -15 2 -1 6 22 6 71 -15 64
-27 -3 -5 0 -10 9 -10 8 0 17 -6 19 -12 3 -8 6 -6 6 5 1 9 -3 17 -9 17 -5 0
-10 9 -10 19 0 13 6 19 18 18 14 -1 17 -7 14 -26 -4 -19 -2 -23 12 -18 10 4
16 1 16 -7 0 -15 24 -16 37 -1 4 4 3 5 -4 1 -14 -8 -46 51 -32 60 5 3 9 1 9
-3 0 -15 38 -12 44 3 5 13 9 12 31 -2 23 -15 25 -15 25 1 0 11 7 15 23 13 12
-2 21 -9 20 -16 -2 -6 4 -12 12 -12 8 0 15 -7 15 -15 0 -10 9 -15 28 -14 15 0
21 3 12 6 -20 8 -50 40 -50 54 0 6 8 9 20 6 10 -3 22 0 25 7 3 6 3 -1 1 -16
-3 -29 8 -35 34 -18 13 8 13 10 -2 10 -11 0 -15 5 -12 14 3 9 13 12 22 9 23
-8 52 -39 45 -47 -4 -3 -1 -6 5 -6 7 0 12 9 12 21 0 11 -4 18 -9 14 -13 -8
-21 8 -12 23 8 13 41 6 41 -9 0 -5 5 -9 10 -9 6 0 10 10 10 22 0 17 3 19 12
10 9 -9 15 -9 26 1 12 10 14 9 8 -8 -4 -16 -1 -21 14 -22 11 -1 20 2 20 8 0 5
-4 9 -10 9 -5 0 -10 5 -10 10 0 18 40 11 41 -7 0 -14 2 -14 9 3 9 24 30 41 30
26 0 -6 9 -8 20 -5 16 4 19 2 13 -12 -4 -13 -3 -16 5 -11 7 4 12 15 12 25 0
14 8 17 48 16 26 -1 52 1 57 5 6 4 17 7 25 7 8 0 41 3 74 7 41 6 56 5 52 -3
-4 -6 -2 -11 3 -11 6 0 11 5 11 10 0 18 52 33 62 18 8 -10 11 -10 15 0 7 17
41 15 59 -3 18 -17 34 -20 34 -5 0 6 -7 10 -16 10 -8 0 -12 5 -9 10 3 6 15 10
26 10 11 0 17 -4 14 -10 -3 -5 1 -10 9 -10 9 0 16 7 16 15 0 9 10 15 26 15 14
0 22 -4 19 -10 -3 -6 1 -7 9 -4 9 3 16 10 16 15 0 5 12 9 26 9 14 0 23 -4 19
-10 -4 -6 6 -10 22 -9 25 0 26 1 8 9 -22 10 -22 10 18 15 15 2 25 0 22 -6 -4
-5 -2 -9 3 -9 6 0 13 7 16 16 4 9 9 15 12 12 2 -3 0 -17 -5 -32z m41 17 c-6
-3 -10 -9 -7 -13 3 -5 1 -11 -5 -15 -5 -3 -10 3 -10 14 0 18 19 34 30 23 3 -2
-1 -7 -8 -9z m-2102 -68 c0 -8 -7 -15 -15 -15 -9 0 -30 -7 -48 -16 -22 -12
-32 -13 -35 -5 -2 6 -8 9 -13 5 -5 -3 -9 0 -9 5 0 6 8 11 18 11 9 1 28 7 42
15 33 19 60 19 60 0z m-489 -13 c-7 -2 -18 1 -23 6 -8 8 -4 9 13 5 13 -4 18
-8 10 -11z m139 -2 c0 -5 -2 -10 -4 -10 -3 0 -8 5 -11 10 -3 6 -1 10 4 10 6 0
11 -4 11 -10z m-113 -22 c-3 -8 -6 -5 -6 6 -1 11 2 17 5 13 3 -3 4 -12 1 -19z
m113 -28 c0 -5 -5 -10 -11 -10 -5 0 -7 5 -4 10 3 6 8 10 11 10 2 0 4 -4 4 -10z
m-135 -20 c3 -6 -1 -7 -9 -4 -18 7 -21 14 -7 14 6 0 13 -4 16 -10z m3032 -116
c-3 -3 -12 -4 -19 -1 -8 3 -5 6 6 6 11 1 17 -2 13 -5z m-2567 -14 c12 -7 10
-9 -8 -7 -12 0 -22 5 -22 9 0 11 12 10 30 -2z m1945 -20 c-3 -5 -1 -10 5 -10
6 0 8 -5 4 -11 -4 -8 -9 -7 -15 2 -7 12 -3 29 7 29 3 0 2 -4 -1 -10z m-2258
-22 c-3 -8 -6 -5 -6 6 -1 11 2 17 5 13 3 -3 4 -12 1 -19z m2357 -13 c-4 -8
-12 -15 -19 -15 -7 0 -16 -6 -19 -12 -3 -7 -4 -4 -3 7 1 11 11 23 22 27 11 3
21 6 22 7 1 1 0 -6 -3 -14z m-2314 -5 c0 -5 -2 -10 -4 -10 -3 0 -8 5 -11 10
-3 6 -1 10 4 10 6 0 11 -4 11 -10z m2074 -11 c-8 -14 -21 -11 -21 5 0 8 6 12
14 9 7 -3 10 -9 7 -14z m76 17 c0 -3 -4 -8 -10 -11 -5 -3 -10 -1 -10 4 0 6 5
11 10 11 6 0 10 -2 10 -4z m94 -11 c-4 -8 -10 -15 -15 -15 -4 0 -6 7 -3 15 4
8 10 15 15 15 4 0 6 -7 3 -15z m-2384 -70 c0 -5 -14 4 -30 22 -17 18 -30 38
-30 45 0 7 14 -3 30 -22 16 -19 30 -39 30 -45z m163 60 c-3 -9 -8 -14 -10 -11
-3 3 -2 9 2 15 9 16 15 13 8 -4z m67 5 c0 -5 -2 -10 -4 -10 -3 0 -8 5 -11 10
-3 6 -1 10 4 10 6 0 11 -4 11 -10z m2074 -15 c-7 -17 -44 -21 -44 -4 0 6 7 9
15 6 8 -4 17 -2 20 3 9 15 15 12 9 -5z m-387 -1 c-3 -3 -12 -4 -19 -1 -8 3 -5
6 6 6 11 1 17 -2 13 -5z m220 -1 c-4 -3 -2 -12 5 -20 17 -20 -6 -41 -26 -24
-12 10 -13 16 -3 32 6 10 16 19 21 19 5 0 6 -3 3 -7z m93 -13 c-6 -11 -15 -20
-20 -20 -14 0 -12 6 6 24 21 22 27 20 14 -4z m275 10 c-3 -5 -12 -10 -18 -10
-7 0 -6 4 3 10 19 12 23 12 15 0z m-537 -25 c-3 -3 -9 2 -12 12 -6 14 -5 15 5
6 7 -7 10 -15 7 -18z m82 15 c0 -5 -5 -10 -11 -10 -5 0 -7 5 -4 10 3 6 8 10
11 10 2 0 4 -4 4 -10z m300 6 c0 -2 -7 -7 -16 -10 -8 -3 -12 -2 -9 4 6 10 25
14 25 6z m-286 -31 c-4 -8 -11 -12 -16 -9 -6 4 -5 10 3 15 19 12 19 11 13 -6z
m371 -13 c-8 -8 -25 10 -19 20 4 6 9 5 15 -3 4 -7 6 -15 4 -17z m-535 14 c0
-3 -4 -8 -10 -11 -5 -3 -10 -1 -10 4 0 6 5 11 10 11 6 0 10 -2 10 -4z m84 -20
c-8 -20 -18 -20 -35 1 -13 15 -12 16 9 11 12 -4 22 -2 22 5 0 6 2 8 5 5 3 -3
3 -13 -1 -22z m404 12 c-6 -18 -25 -21 -25 -3 0 8 7 15 15 15 7 0 12 -5 10
-12z m-578 -13 c-7 -9 -15 -13 -19 -10 -3 3 1 10 9 15 21 14 24 12 10 -5z
m3510 -5 c47 -47 44 -106 -7 -129 -48 -22 -87 -9 -111 36 -17 32 -15 57 9 87
26 33 79 36 109 6z m-5303 -12 c-3 -8 -6 -5 -6 6 -1 11 2 17 5 13 3 -3 4 -12
1 -19z m1879 -6 c-18 -16 -18 -16 -6 6 6 13 14 21 18 18 3 -4 -2 -14 -12 -24z
m134 18 c0 -5 -10 -15 -22 -21 -23 -12 -23 -12 -4 10 21 23 26 26 26 11z
m-295 -10 c-3 -5 -11 -10 -16 -10 -6 0 -7 5 -4 10 3 6 11 10 16 10 6 0 7 -4 4
-10z m-85 -15 c-7 -9 -15 -13 -19 -10 -3 3 1 10 9 15 21 14 24 12 10 -5z m175
6 c-9 -16 15 -23 33 -10 16 12 16 11 1 -4 -13 -15 -20 -16 -48 -6 -24 9 -29
14 -19 20 18 12 41 11 33 0z m120 -1 c-3 -5 -12 -10 -18 -10 -7 0 -6 4 3 10
19 12 23 12 15 0z m-375 -10 c0 -5 -5 -10 -11 -10 -5 0 -7 5 -4 10 3 6 8 10
11 10 2 0 4 -4 4 -10z m1575 -36 c28 -25 40 -41 28 -35 -12 6 -27 17 -35 24
-7 7 -26 22 -42 35 -16 12 -22 22 -15 22 8 0 37 -21 64 -46z m-1401 21 c3 -9
12 -12 23 -9 13 4 14 3 5 -4 -19 -13 -62 -3 -55 14 7 18 19 18 27 -1z m-344
-10 c0 -12 -19 -12 -23 0 -4 9 -1 12 9 8 7 -3 14 -7 14 -8z m90 11 c0 -2 -7
-7 -16 -10 -8 -3 -12 -2 -9 4 6 10 25 14 25 6z m160 -6 c0 5 4 10 10 10 5 0 7
-7 4 -15 -8 -19 -15 -19 -40 1 -18 14 -18 15 4 4 15 -7 22 -7 22 0z m-70 -21
c0 -5 -4 -9 -10 -9 -5 0 -10 7 -10 16 0 8 5 12 10 9 6 -3 10 -10 10 -16z m-80
-4 c-7 -9 -15 -13 -19 -10 -3 3 1 10 9 15 21 14 24 12 10 -5z m195 5 c-3 -5
-12 -10 -18 -10 -7 0 -6 4 3 10 19 12 23 12 15 0z m-390 -10 c-3 -5 1 -10 9
-10 10 0 13 -6 10 -15 -7 -18 -25 -20 -21 -2 1 6 -4 11 -12 9 -12 -3 -12 0 -1
12 14 18 25 22 15 6z m310 0 c-3 -5 -12 -10 -18 -10 -7 0 -6 4 3 10 19 12 23
12 15 0z m-380 -40 c3 -5 1 -10 -4 -10 -6 0 -11 5 -11 10 0 6 2 10 4 10 3 0 8
-4 11 -10z m130 0 c-3 -5 -12 -10 -18 -10 -7 0 -6 4 3 10 19 12 23 12 15 0z
m-390 -10 c-3 -5 -11 -10 -16 -10 -6 0 -7 5 -4 10 3 6 11 10 16 10 6 0 7 -4 4
-10z m175 -11 c0 -5 -7 -9 -15 -9 -15 0 -20 12 -9 23 8 8 24 -1 24 -14z m126
6 c-11 -8 -25 -15 -30 -15 -6 1 0 7 14 15 32 19 40 18 16 0z m-386 -5 c0 -5
-5 -10 -11 -10 -5 0 -7 5 -4 10 3 6 8 10 11 10 2 0 4 -4 4 -10z m190 -11 c0
-5 -4 -9 -10 -9 -5 0 -10 7 -10 16 0 8 5 12 10 9 6 -3 10 -10 10 -16z m-103
-16 c-9 -9 -19 -14 -23 -11 -10 10 6 28 24 28 15 0 15 -1 -1 -17z m-262 -3
c-3 -5 -12 -10 -18 -10 -7 0 -6 4 3 10 19 12 23 12 15 0z m177 -12 c-9 -9 -15
-9 -24 1 -9 10 -9 12 -1 7 6 -3 15 -1 18 5 4 5 10 8 13 4 3 -3 0 -11 -6 -17z
m128 2 c-24 -15 -36 -11 -14 4 10 8 21 12 24 10 2 -3 -2 -9 -10 -14z m-390 -4
c0 -2 -7 -6 -15 -10 -8 -3 -15 -1 -15 4 0 6 7 10 15 10 8 0 15 -2 15 -4z m170
-13 c0 -7 -4 -13 -9 -13 -5 0 -13 6 -19 13 -8 10 -6 13 9 13 10 0 19 -6 19
-13z m-265 -3 c-3 -5 -12 -10 -18 -10 -7 0 -6 4 3 10 19 12 23 12 15 0z m183
-2 c-6 -18 -28 -21 -28 -4 0 9 7 16 16 16 9 0 14 -5 12 -12z m142 8 c0 -2 -8
-10 -17 -17 -16 -13 -17 -12 -4 4 13 16 21 21 21 13z m-415 -13 c14 -5 12 -8
-11 -19 -22 -11 -24 -12 -5 -8 27 7 22 -10 -8 -25 -14 -8 -17 -6 -16 7 2 18
15 52 20 52 2 0 11 -3 20 -7z m178 -14 c-7 -7 -19 -8 -30 -4 -16 7 -15 9 7 15
30 8 38 4 23 -11z m-261 2 l-24 -6 25 -27 24 -26 -26 -5 c-14 -3 -30 -1 -35 4
-6 6 -4 9 7 9 13 0 15 5 7 24 -10 28 -5 36 24 35 19 -1 19 -2 -2 -8z m403 -1
c-3 -5 -16 -10 -28 -9 -20 1 -20 2 3 9 14 4 26 8 28 9 2 1 0 -3 -3 -9z m-231
-15 c-4 -8 -10 -15 -15 -15 -4 0 -6 7 -3 15 4 8 10 15 15 15 4 0 6 -7 3 -15z
m-39 -25 c-3 -5 -14 -10 -23 -9 -14 0 -13 2 3 9 27 11 27 11 20 0z m-140 -50
c-3 -5 -10 -10 -16 -10 -5 0 -9 5 -9 10 0 6 7 10 16 10 8 0 12 -4 9 -10z m825
-210 c0 -5 -4 -10 -10 -10 -5 0 -10 5 -10 10 0 6 5 10 10 10 6 0 10 -4 10 -10z
m5 -30 c3 -5 -1 -10 -10 -10 -9 0 -13 5 -10 10 3 6 8 10 10 10 2 0 7 -4 10
-10z m4015 -528 c36 -18 50 -46 31 -65 -7 -7 -16 -6 -29 6 -10 9 -32 17 -48
16 l-29 -1 33 -9 c18 -5 30 -14 27 -19 -9 -15 -30 -12 -70 8 -46 22 -44 52 5
69 44 15 39 15 80 -5z m1899 -751 c8 -5 9 -11 3 -15 -14 -8 -43 4 -36 15 7 11
15 11 33 0z m405 -26 c3 -9 0 -15 -9 -15 -8 0 -15 7 -15 15 0 8 4 15 9 15 5 0
11 -7 15 -15z m-390 -20 c-4 -8 -10 -15 -14 -15 -4 0 -10 7 -14 15 -4 10 1 15
14 15 13 0 18 -5 14 -15z"/>
<path d="M5326 7982 c-2 -4 -1 -14 5 -22 7 -12 9 -10 9 8 0 23 -5 28 -14 14z"/>
<path d="M5703 7193 c4 -3 7 -9 7 -14 0 -5 -28 -7 -65 -4 -35 2 -88 0 -117 -5
-29 -6 -100 -13 -158 -16 -123 -7 -157 -18 -157 -51 0 -13 6 -23 13 -23 8 0
14 -5 14 -11 0 -5 4 -8 9 -4 6 3 15 -4 21 -15 6 -11 14 -19 18 -19 19 3 29 -3
45 -30 13 -22 14 -30 5 -34 -7 -2 3 -9 23 -16 44 -14 51 -46 7 -37 -21 4 -28
2 -28 -9 0 -9 10 -15 23 -16 21 0 21 -1 2 -8 -19 -8 -19 -8 5 -16 14 -4 49
-32 78 -61 49 -50 82 -68 82 -44 0 6 9 6 26 0 31 -12 111 -12 139 0 19 8 19 9
-2 9 -14 1 -23 7 -23 17 0 14 3 14 15 4 8 -7 15 -9 15 -4 0 5 11 22 25 38 14
16 25 25 25 20 0 -5 10 3 23 17 12 15 36 29 54 33 22 5 30 12 26 22 -3 8 -11
14 -19 14 -8 0 -14 5 -14 11 0 6 6 9 14 6 8 -3 22 3 31 13 10 11 24 16 33 13
10 -4 14 -3 10 2 -4 4 -22 9 -39 11 -18 2 -40 11 -50 19 -17 16 -103 19 -93 3
5 -8 -8 -11 -41 -9 -16 2 -17 0 -5 -8 8 -5 12 -13 8 -16 -8 -9 -148 6 -148 15
0 4 6 8 13 7 38 -1 67 4 67 13 0 6 -10 10 -22 10 -29 0 -54 15 -40 24 6 3 17
4 25 0 10 -4 14 1 13 18 -1 19 5 24 39 30 82 15 105 20 110 27 2 4 29 4 59 1
31 -3 62 -3 69 2 6 4 23 8 37 8 20 0 22 -2 10 -11 -13 -9 -13 -10 0 -6 8 2 16
10 18 18 3 17 -95 43 -165 44 -22 0 -39 3 -36 8 2 4 0 7 -6 7 -5 0 -15 2 -23
3 -7 2 -10 2 -5 0z m-173 -198 c0 -8 -4 -15 -10 -15 -5 0 -10 7 -10 15 0 8 5
15 10 15 6 0 10 -7 10 -15z m217 -11 c-3 -3 -12 -4 -19 -1 -8 3 -5 6 6 6 11 1
17 -2 13 -5z m-28 -39 c2 -3 -7 -5 -22 -5 -14 0 -29 -4 -32 -10 -4 -6 -13 -5
-25 2 -10 7 -17 16 -14 20 5 8 84 1 93 -7z m-59 -175 c0 -5 -4 -10 -9 -10 -6
0 -13 5 -16 10 -3 6 1 10 9 10 9 0 16 -4 16 -10z"/>
<path d="M6741 6814 c0 -11 3 -14 6 -6 3 7 2 16 -1 19 -3 4 -6 -2 -5 -13z"/>
<path d="M6806 6798 c-8 -13 -18 -36 -22 -52 l-7 -28 28 18 c28 18 49 59 39
75 -9 15 -23 10 -38 -13z"/>
<path d="M6500 6792 c0 -5 7 -15 15 -22 8 -7 15 -9 15 -6 0 4 -7 14 -15 22 -8
9 -15 11 -15 6z"/>
<path d="M6830 6574 c0 -14 4 -23 10 -19 6 3 10 15 10 26 0 10 -4 19 -10 19
-5 0 -10 -12 -10 -26z"/>
<path d="M5423 6448 c1 -14 5 -24 10 -21 4 2 10 -3 13 -11 3 -9 24 -35 45 -58
21 -24 39 -45 39 -48 0 -9 220 -290 227 -290 2 0 1 5 -2 10 -4 6 -1 17 5 25
10 12 9 15 -5 15 -11 0 -15 5 -12 14 3 8 -1 17 -9 20 -10 4 -13 13 -9 26 4 13
2 20 -7 20 -7 0 -31 16 -52 35 -22 19 -43 35 -48 35 -4 0 -4 7 -1 17 4 11 3
14 -5 9 -7 -4 -19 0 -28 8 -8 9 -12 16 -8 16 4 0 -2 10 -13 23 -11 12 -32 40
-46 62 -14 22 -41 58 -60 80 -34 39 -35 39 -34 13z"/>
<path d="M5276 5446 c10 -8 21 -12 24 -10 5 6 -21 24 -34 24 -6 0 -1 -6 10
-14z"/>
<path d="M6516 5701 c-4 -7 -5 -15 -2 -18 9 -9 19 4 14 18 -4 11 -6 11 -12 0z"/>
<path d="M6530 5620 c-8 -5 -10 -10 -5 -10 6 0 17 5 25 10 8 5 11 10 5 10 -5
0 -17 -5 -25 -10z"/>
<path d="M6470 5569 c0 -5 5 -7 10 -4 6 3 10 8 10 11 0 2 -4 4 -10 4 -5 0 -10
-5 -10 -11z"/>
<path d="M6365 5490 c-3 -6 1 -7 9 -4 18 7 21 14 7 14 -6 0 -13 -4 -16 -10z"/>
<path d="M6095 5170 c-4 -6 3 -10 14 -10 25 0 27 6 6 13 -8 4 -17 2 -20 -3z"/>
<path d="M5702 5070 c0 -14 2 -19 5 -12 2 6 2 18 0 25 -3 6 -5 1 -5 -13z"/>
<path d="M3710 3796 c0 -2 7 -6 15 -10 8 -3 15 -1 15 4 0 6 -7 10 -15 10 -8 0
-15 -2 -15 -4z"/>
<path d="M4200 3750 c0 -5 5 -10 11 -10 5 0 7 5 4 10 -3 6 -8 10 -11 10 -2 0
-4 -4 -4 -10z"/>
<path d="M4230 3746 c0 -9 30 -14 35 -6 4 6 -3 10 -14 10 -12 0 -21 -2 -21 -4z"/>
<path d="M5732 3018 c3 -7 32 -27 67 -44 34 -17 81 -49 105 -71 43 -41 86 -63
86 -45 0 5 -24 33 -52 62 -71 70 -220 141 -206 98z"/>
<path d="M6004 2828 c-4 -6 -2 -14 4 -16 7 -2 12 -9 12 -15 0 -7 9 -23 20 -37
30 -38 26 0 -4 45 -17 24 -27 32 -32 23z"/>
<path d="M7415 1800 c3 -5 8 -10 11 -10 2 0 4 5 4 10 0 6 -5 10 -11 10 -5 0
-7 -4 -4 -10z"/>
<path d="M7498 1023 c7 -3 16 -2 19 1 4 3 -2 6 -13 5 -11 0 -14 -3 -6 -6z"/>
<path d="M1757 4629 c-13 -8 -15 -14 -7 -30 11 -20 35 -25 45 -9 3 5 0 19 -7
29 -10 14 -18 17 -31 10z"/>
<path d="M3035 3450 c-16 -7 -17 -9 -3 -9 9 -1 20 4 23 9 7 11 7 11 -20 0z"/>
<path d="M3028 3423 c7 -3 16 -2 19 1 4 3 -2 6 -13 5 -11 0 -14 -3 -6 -6z"/>
<path d="M1606 3322 c-3 -5 1 -9 9 -9 8 0 12 4 9 9 -3 4 -7 8 -9 8 -2 0 -6 -4
-9 -8z"/>
<path d="M1619 3293 c20 -4 22 -7 10 -15 -10 -7 -10 -9 -1 -6 22 6 14 23 -10
24 -21 1 -21 1 1 -3z"/>
<path d="M1021 3281 c-20 -13 -6 -55 24 -75 14 -9 25 -25 25 -36 0 -11 2 -20
5 -20 8 0 44 38 40 42 -2 2 -6 16 -9 32 -5 28 -40 66 -60 66 -6 0 -17 -4 -25
-9z"/>
<path d="M2315 3240 c-3 -5 -1 -10 4 -10 6 0 11 5 11 10 0 6 -2 10 -4 10 -3 0
-8 -4 -11 -10z"/>
<path d="M2010 3200 c-11 -7 -5 -8 20 -4 43 8 51 14 19 14 -13 0 -31 -5 -39
-10z"/>
<path d="M1930 3189 c0 -5 5 -7 10 -4 6 3 10 8 10 11 0 2 -4 4 -10 4 -5 0 -10
-5 -10 -11z"/>
<path d="M2130 3190 c0 -5 5 -10 10 -10 6 0 10 5 10 10 0 6 -4 10 -10 10 -5 0
-10 -4 -10 -10z"/>
<path d="M2777 3170 c-3 -11 -1 -23 4 -26 5 -3 9 6 9 20 0 31 -6 34 -13 6z"/>
<path d="M2721 3180 c-18 -42 -3 -62 29 -39 13 9 13 10 -2 5 -12 -3 -18 2 -21
17 -2 12 -5 20 -6 17z"/>
<path d="M2576 3135 c-3 -9 0 -15 9 -15 16 0 20 16 6 24 -5 3 -11 -1 -15 -9z"/>
<path d="M2505 3130 c3 -5 8 -10 11 -10 2 0 4 5 4 10 0 6 -5 10 -11 10 -5 0
-7 -4 -4 -10z"/>
<path d="M2418 3123 c6 -2 18 -2 25 0 6 3 1 5 -13 5 -14 0 -19 -2 -12 -5z"/>
<path d="M2348 3113 c6 -2 18 -2 25 0 6 3 1 5 -13 5 -14 0 -19 -2 -12 -5z"/>
<path d="M2303 3091 c0 -11 5 -17 9 -15 11 7 10 34 -1 34 -6 0 -9 -9 -8 -19z"/>
<path d="M2436 3101 c-3 -5 5 -8 18 -7 13 0 22 4 19 9 -6 10 -31 9 -37 -2z"/>
<path d="M2776 3095 c-3 -8 -1 -15 4 -15 6 0 10 7 10 15 0 8 -2 15 -4 15 -2 0
-6 -7 -10 -15z"/>
<path d="M2370 3089 c0 -5 5 -7 10 -4 6 3 10 8 10 11 0 2 -4 4 -10 4 -5 0 -10
-5 -10 -11z"/>
<path d="M2160 3070 c0 -13 7 -20 20 -20 19 0 19 1 3 20 -10 11 -19 20 -20 20
-2 0 -3 -9 -3 -20z"/>
<path d="M2335 3080 c-3 -5 -1 -10 4 -10 6 0 11 5 11 10 0 6 -2 10 -4 10 -3 0
-8 -4 -11 -10z"/>
<path d="M2705 3080 c-3 -5 -2 -10 4 -10 5 0 13 5 16 10 3 6 2 10 -4 10 -5 0
-13 -4 -16 -10z"/>
<path d="M2040 3044 c0 -14 4 -23 9 -20 5 3 7 15 4 26 -7 28 -13 25 -13 -6z"/>
<path d="M2258 3063 c7 -3 16 -2 19 1 4 3 -2 6 -13 5 -11 0 -14 -3 -6 -6z"/>
<path d="M2112 3053 c-12 -2 -20 -8 -17 -13 6 -10 45 -1 45 11 0 5 -1 8 -2 8
-2 -1 -13 -4 -26 -6z"/>
<path d="M2248 3043 c6 -2 18 -2 25 0 6 3 1 5 -13 5 -14 0 -19 -2 -12 -5z"/>
<path d="M1910 3020 c0 -5 5 -10 10 -10 6 0 10 5 10 10 0 6 -4 10 -10 10 -5 0
-10 -4 -10 -10z"/>
<path d="M2700 3019 c0 -5 5 -7 10 -4 6 3 10 8 10 11 0 2 -4 4 -10 4 -5 0 -10
-5 -10 -11z"/>
<path d="M1700 3010 c0 -5 6 -10 14 -10 8 0 16 -6 19 -12 2 -7 8 -9 13 -5 5 5
1 15 -10 23 -23 16 -36 18 -36 4z"/>
<path d="M1810 3000 c0 -5 5 -10 11 -10 5 0 7 5 4 10 -3 6 -8 10 -11 10 -2 0
-4 -4 -4 -10z"/>
<path d="M1555 2987 c-4 -10 -5 -21 -1 -24 10 -10 18 4 13 24 -4 17 -4 17 -12
0z"/>
<path d="M1760 2980 c0 -11 4 -20 9 -20 5 0 7 9 4 20 -3 11 -7 20 -9 20 -2 0
-4 -9 -4 -20z"/>
<path d="M1885 2980 c3 -5 8 -10 11 -10 2 0 4 5 4 10 0 6 -5 10 -11 10 -5 0
-7 -4 -4 -10z"/>
<path d="M2537 2973 c3 -7 8 -13 12 -13 4 0 8 6 8 13 0 8 -6 14 -13 14 -7 0
-10 -6 -7 -14z"/>
<path d="M2775 2980 c-3 -5 -1 -10 4 -10 6 0 11 5 11 10 0 6 -2 10 -4 10 -3 0
-8 -4 -11 -10z"/>
<path d="M1641 2963 c-1 -16 5 -23 17 -23 10 0 13 3 6 8 -6 4 -14 14 -17 22
-4 10 -6 8 -6 -7z"/>
<path d="M1167 2963 c-12 -12 -7 -33 7 -33 8 0 17 -6 19 -12 4 -9 6 -8 6 2 0
19 -24 52 -32 43z"/>
<path d="M1340 2959 c0 -5 5 -7 10 -4 6 3 10 8 10 11 0 2 -4 4 -10 4 -5 0 -10
-5 -10 -11z"/>
<path d="M1370 2948 c0 -19 2 -20 10 -8 13 19 13 30 0 30 -5 0 -10 -10 -10
-22z"/>
<path d="M2330 2960 c0 -5 5 -10 11 -10 5 0 7 5 4 10 -3 6 -8 10 -11 10 -2 0
-4 -4 -4 -10z"/>
<path d="M2635 2960 c-3 -5 -1 -10 4 -10 6 0 11 5 11 10 0 6 -2 10 -4 10 -3 0
-8 -4 -11 -10z"/>
<path d="M1460 2950 c0 -5 5 -10 10 -10 6 0 10 5 10 10 0 6 -4 10 -10 10 -5 0
-10 -4 -10 -10z"/>
<path d="M2070 2950 c0 -5 5 -10 11 -10 5 0 7 5 4 10 -3 6 -8 10 -11 10 -2 0
-4 -4 -4 -10z"/>
<path d="M2735 2950 c-3 -5 -1 -10 4 -10 6 0 11 5 11 10 0 6 -2 10 -4 10 -3 0
-8 -4 -11 -10z"/>
<path d="M1590 2940 c0 -6 7 -10 15 -10 8 0 15 2 15 4 0 2 -7 6 -15 10 -8 3
-15 1 -15 -4z"/>
<path d="M2665 2930 c3 -5 8 -10 11 -10 2 0 4 5 4 10 0 6 -5 10 -11 10 -5 0
-7 -4 -4 -10z"/>
<path d="M1075 2917 c-8 -19 -2 -31 13 -26 5 2 6 13 2 24 -7 19 -8 19 -15 2z"/>
<path d="M1465 2920 c-3 -5 3 -10 15 -10 12 0 18 5 15 10 -3 6 -10 10 -15 10
-5 0 -12 -4 -15 -10z"/>
<path d="M2300 2911 c-7 -15 -7 -21 0 -21 12 0 25 28 17 36 -3 3 -10 -4 -17
-15z"/>
<path d="M2605 2920 c-3 -5 -1 -10 4 -10 6 0 11 5 11 10 0 6 -2 10 -4 10 -3 0
-8 -4 -11 -10z"/>
<path d="M1210 2910 c0 -5 5 -10 11 -10 5 0 7 5 4 10 -3 6 -8 10 -11 10 -2 0
-4 -4 -4 -10z"/>
<path d="M2375 2910 c4 -6 11 -8 16 -5 14 9 11 15 -7 15 -8 0 -12 -5 -9 -10z"/>
<path d="M2631 2909 c-1 -19 25 -33 34 -19 4 6 0 10 -9 10 -8 0 -17 6 -19 13
-4 7 -6 6 -6 -4z"/>
<path d="M2700 2910 c-8 -5 -12 -12 -9 -15 4 -3 12 1 19 10 14 17 11 19 -10 5z"/>
<path d="M1418 2903 c7 -3 16 -2 19 1 4 3 -2 6 -13 5 -11 0 -14 -3 -6 -6z"/>
<path d="M1555 2900 c4 -6 11 -8 16 -5 14 9 11 15 -7 15 -8 0 -12 -5 -9 -10z"/>
<path d="M893 2880 c1 -13 8 -20 22 -19 11 0 14 3 8 6 -7 2 -13 11 -13 19 0 8
-4 14 -9 14 -6 0 -9 -9 -8 -20z"/>
<path d="M1270 2889 c0 -5 5 -7 10 -4 6 3 10 8 10 11 0 2 -4 4 -10 4 -5 0 -10
-5 -10 -11z"/>
<path d="M1791 2884 c0 -11 3 -14 6 -6 3 7 2 16 -1 19 -3 4 -6 -2 -5 -13z"/>
<path d="M2400 2884 c0 -13 3 -14 13 -5 8 6 18 7 22 3 5 -4 5 -1 1 6 -10 18
-36 15 -36 -4z"/>
<path d="M1220 2886 c0 -2 7 -6 15 -10 8 -3 15 -1 15 4 0 6 -7 10 -15 10 -8 0
-15 -2 -15 -4z"/>
<path d="M1848 2883 c7 -3 16 -2 19 1 4 3 -2 6 -13 5 -11 0 -14 -3 -6 -6z"/>
<path d="M980 2865 c0 -9 7 -18 15 -22 23 -8 24 0 3 20 -15 14 -18 15 -18 2z"/>
<path d="M1100 2870 c0 -6 7 -10 15 -10 8 0 15 2 15 4 0 2 -7 6 -15 10 -8 3
-15 1 -15 -4z"/>
<path d="M1550 2870 c0 -5 5 -10 11 -10 5 0 7 5 4 10 -3 6 -8 10 -11 10 -2 0
-4 -4 -4 -10z"/>
<path d="M2320 2870 c0 -5 4 -10 9 -10 6 0 13 5 16 10 3 6 -1 10 -9 10 -9 0
-16 -4 -16 -10z"/>
<path d="M1761 2854 c0 -11 3 -14 6 -6 3 7 2 16 -1 19 -3 4 -6 -2 -5 -13z"/>
<path d="M785 2850 c-4 -6 3 -10 14 -10 25 0 27 6 6 13 -8 4 -17 2 -20 -3z"/>
<path d="M1610 2849 c0 -5 5 -7 10 -4 6 3 10 8 10 11 0 2 -4 4 -10 4 -5 0 -10
-5 -10 -11z"/>
<path d="M2069 2840 c-2 -15 -10 -25 -20 -24 -14 1 -24 -25 -10 -27 3 0 14 -2
24 -4 9 -2 17 1 17 6 0 5 -5 9 -12 9 -21 0 3 15 45 27 l42 13 -37 -4 c-28 -4
-38 -1 -41 12 -2 12 -5 9 -8 -8z"/>
<path d="M2190 2850 c0 -5 4 -10 9 -10 6 0 13 5 16 10 3 6 -1 10 -9 10 -9 0
-16 -4 -16 -10z"/>
<path d="M2236 2845 c4 -8 8 -15 10 -15 2 0 4 7 4 15 0 8 -4 15 -10 15 -5 0
-7 -7 -4 -15z"/>
<path d="M924 2839 c-3 -5 6 -9 20 -9 31 0 34 6 6 13 -11 3 -23 1 -26 -4z"/>
<path d="M1580 2840 c0 -5 5 -10 10 -10 6 0 10 5 10 10 0 6 -4 10 -10 10 -5 0
-10 -4 -10 -10z"/>
<path d="M2163 2830 c2 -14 7 -24 11 -23 21 5 21 10 4 28 -18 19 -18 19 -15
-5z"/>
<path d="M1348 2833 c7 -3 16 -2 19 1 4 3 -2 6 -13 5 -11 0 -14 -3 -6 -6z"/>
<path d="M1928 2833 c7 -3 16 -2 19 1 4 3 -2 6 -13 5 -11 0 -14 -3 -6 -6z"/>
<path d="M815 2820 c3 -5 8 -10 11 -10 2 0 4 5 4 10 0 6 -5 10 -11 10 -5 0 -7
-4 -4 -10z"/>
<path d="M1010 2820 c0 -5 10 -10 23 -10 18 0 19 2 7 10 -19 13 -30 13 -30 0z"/>
<path d="M1438 2823 c7 -3 16 -2 19 1 4 3 -2 6 -13 5 -11 0 -14 -3 -6 -6z"/>
<path d="M2006 2821 c-4 -7 -5 -15 -2 -18 9 -9 19 4 14 18 -4 11 -6 11 -12 0z"/>
<path d="M955 2810 c3 -5 8 -10 11 -10 2 0 4 5 4 10 0 6 -5 10 -11 10 -5 0 -7
-4 -4 -10z"/>
<path d="M1158 2813 c7 -3 16 -2 19 1 4 3 -2 6 -13 5 -11 0 -14 -3 -6 -6z"/>
<path d="M890 2800 c-11 -8 -9 -9 13 -8 15 1 27 6 27 10 0 11 -22 10 -40 -2z"/>
<path d="M1458 2803 c7 -3 16 -2 19 1 4 3 -2 6 -13 5 -11 0 -14 -3 -6 -6z"/>
<path d="M1550 2801 c0 -9 30 -24 36 -18 2 1 -6 8 -16 15 -11 7 -20 8 -20 3z"/>
<path d="M1270 2793 c0 -21 40 -55 58 -50 16 4 16 5 0 6 -12 1 -15 6 -11 18 5
12 2 15 -10 10 -10 -4 -20 0 -26 11 -6 10 -11 12 -11 5z"/>
<path d="M980 2780 c0 -5 7 -10 15 -10 8 0 15 5 15 10 0 6 -7 10 -15 10 -8 0
-15 -4 -15 -10z"/>
<path d="M1695 2781 c-3 -5 -1 -12 5 -16 5 -3 10 1 10 9 0 18 -6 21 -15 7z"/>
<path d="M1828 2783 c6 -2 18 -2 25 0 6 3 1 5 -13 5 -14 0 -19 -2 -12 -5z"/>
<path d="M887 2750 c3 -11 12 -20 19 -20 8 0 14 -4 14 -10 0 -5 4 -10 9 -10 5
0 7 9 4 20 -3 11 -12 20 -19 20 -8 0 -14 5 -14 10 0 6 -4 10 -9 10 -5 0 -7 -9
-4 -20z"/>
<path d="M1580 2758 c0 -4 9 -8 20 -8 11 0 20 4 20 8 0 4 -9 8 -20 8 -11 0
-20 -4 -20 -8z"/>
<path d="M1875 2760 c3 -5 8 -10 11 -10 2 0 4 5 4 10 0 6 -5 10 -11 10 -5 0
-7 -4 -4 -10z"/>
<path d="M955 2750 c-3 -5 -1 -10 4 -10 6 0 11 5 11 10 0 6 -2 10 -4 10 -3 0
-8 -4 -11 -10z"/>
<path d="M1023 2753 c9 -2 15 -9 12 -14 -4 -5 -1 -9 4 -9 6 0 11 7 11 15 0 9
-9 15 -22 14 -18 -1 -19 -2 -5 -6z"/>
<path d="M1240 2745 c0 -8 4 -15 10 -15 5 0 7 7 4 15 -4 8 -8 15 -10 15 -2 0
-4 -7 -4 -15z"/>
<path d="M1467 2739 c7 -7 15 -10 18 -7 3 3 -2 9 -12 12 -14 6 -15 5 -6 -5z"/>
<path d="M1553 2730 c-1 -11 7 -20 22 -22 17 -4 22 -1 18 9 -3 8 -12 12 -20 9
-8 -3 -11 -2 -8 3 3 5 2 12 -3 15 -4 2 -8 -4 -9 -14z"/>
<path d="M830 2729 c0 -5 9 -9 20 -9 11 0 20 2 20 4 0 2 -9 6 -20 9 -11 3 -20
1 -20 -4z"/>
<path d="M1180 2729 c0 -5 9 -9 20 -9 11 0 20 2 20 4 0 2 -9 6 -20 9 -11 3
-20 1 -20 -4z"/>
<path d="M1395 2729 c6 -9 45 -8 45 2 0 4 -11 7 -25 7 -13 0 -22 -4 -20 -9z"/>
<path d="M1610 2730 c0 -14 28 -19 33 -6 3 6 -4 13 -14 13 -10 1 -19 -2 -19
-7z"/>
<path d="M1330 2720 c0 -5 5 -10 10 -10 6 0 10 5 10 10 0 6 -4 10 -10 10 -5 0
-10 -4 -10 -10z"/>
<path d="M1295 2710 c-3 -5 -1 -10 4 -10 6 0 11 5 11 10 0 6 -2 10 -4 10 -3 0
-8 -4 -11 -10z"/>
<path d="M1480 2710 c0 -13 20 -13 40 0 12 8 9 10 -12 10 -16 0 -28 -4 -28
-10z"/>
<path d="M950 2696 c0 -10 8 -16 22 -16 12 0 19 1 17 3 -2 1 -12 9 -21 16 -15
12 -18 11 -18 -3z"/>
<path d="M1010 2706 c0 -2 7 -7 16 -10 8 -3 12 -2 9 4 -6 10 -25 14 -25 6z"/>
<path d="M1068 2703 c7 -3 16 -2 19 1 4 3 -2 6 -13 5 -11 0 -14 -3 -6 -6z"/>
<path d="M1430 2702 c0 -5 9 -12 21 -15 13 -3 19 -1 16 6 -5 15 -37 22 -37 9z"/>
<path d="M740 2689 c0 -5 5 -7 10 -4 6 3 10 8 10 11 0 2 -4 4 -10 4 -5 0 -10
-5 -10 -11z"/>
<path d="M1350 2690 c0 -5 4 -10 9 -10 6 0 13 5 16 10 3 6 -1 10 -9 10 -9 0
-16 -4 -16 -10z"/>
<path d="M1095 2680 c3 -5 12 -7 20 -3 21 7 19 13 -6 13 -11 0 -18 -4 -14 -10z"/>
<path d="M1035 2670 c3 -5 8 -10 11 -10 2 0 4 5 4 10 0 6 -5 10 -11 10 -5 0
-7 -4 -4 -10z"/>
<path d="M980 2660 c0 -5 7 -7 15 -4 8 4 15 8 15 10 0 2 -7 4 -15 4 -8 0 -15
-4 -15 -10z"/>
<path d="M850 2639 c0 -5 5 -7 10 -4 6 3 10 8 10 11 0 2 -4 4 -10 4 -5 0 -10
-5 -10 -11z"/>
<path d="M790 2636 c0 -2 9 -6 20 -9 11 -3 20 -1 20 4 0 5 -9 9 -20 9 -11 0
-20 -2 -20 -4z"/>
<path d="M880 2610 c0 -13 11 -13 30 0 12 8 11 10 -7 10 -13 0 -23 -4 -23 -10z"/>
<path d="M2543 2805 c0 -8 4 -12 9 -9 5 3 6 10 3 15 -9 13 -12 11 -12 -6z"/>
<path d="M5656 2752 c-2 -4 -7 -25 -10 -47 l-6 -40 13 43 c7 25 16 40 21 35 5
-4 6 -3 2 5 -8 14 -13 15 -20 4z"/>
<path d="M5721 2741 c13 -8 15 -19 9 -51 -4 -22 -3 -40 1 -40 5 0 9 15 9 33 0
18 5 38 12 45 8 8 9 12 1 12 -6 0 -20 3 -30 6 -16 5 -16 4 -2 -5z"/>
<path d="M7451 7654 c0 -11 3 -14 6 -6 3 7 2 16 -1 19 -3 4 -6 -2 -5 -13z"/>
<path d="M7531 7284 c0 -11 3 -14 6 -6 3 7 2 16 -1 19 -3 4 -6 -2 -5 -13z"/>
<path d="M7636 6840 c3 -19 12 -46 20 -60 13 -24 13 -24 7 10 -3 19 -12 46
-20 60 -13 24 -13 24 -7 -10z"/>
<path d="M7782 6210 c0 -14 2 -19 5 -12 2 6 2 18 0 25 -3 6 -5 1 -5 -13z"/>
<path d="M7770 6075 c0 -8 4 -15 10 -15 5 0 7 7 4 15 -4 8 -8 15 -10 15 -2 0
-4 -7 -4 -15z"/>
<path d="M7792 6000 c0 -14 2 -19 5 -12 2 6 2 18 0 25 -3 6 -5 1 -5 -13z"/>
<path d="M7722 5731 c-6 -17 -7 -31 -3 -31 8 0 22 52 16 58 -1 2 -7 -11 -13
-27z"/>
<path d="M2150 5633 c0 -5 10 -21 21 -38 12 -16 19 -22 15 -12 -3 9 -1 17 5
17 6 0 6 7 -1 20 -10 19 -40 28 -40 13z"/>
<path d="M2220 5603 c8 -4 28 -19 45 -35 30 -28 65 -37 65 -17 0 6 7 9 15 5
17 -6 20 11 6 33 -5 7 -13 11 -19 7 -6 -3 -13 -2 -17 4 -3 5 -30 10 -58 9 -29
0 -45 -3 -37 -6z"/>
<path d="M2220 5535 c0 -8 2 -15 4 -15 2 0 6 7 10 15 3 8 1 15 -4 15 -6 0 -10
-7 -10 -15z"/>
<path d="M2251 5524 c0 -11 3 -14 6 -6 3 7 2 16 -1 19 -3 4 -6 -2 -5 -13z"/>
<path d="M2149 5233 c-1 -4 -1 -12 0 -17 1 -5 -5 -6 -14 -3 -16 7 -19 -2 -9
-27 5 -12 10 -13 25 -5 11 5 17 14 14 20 -4 5 -2 9 4 9 5 0 12 -6 14 -12 3 -8
6 -6 6 4 1 17 -38 46 -40 31z"/>
<path d="M2290 5083 c0 -14 -2 -15 -9 -5 -7 11 -9 11 -13 0 -3 -8 4 -18 16
-24 19 -9 21 -7 21 18 0 15 -3 28 -7 28 -5 0 -8 -8 -8 -17z"/>
<path d="M2362 5050 c0 -19 2 -27 5 -17 2 9 2 25 0 35 -3 9 -5 1 -5 -18z"/>
<path d="M2342 5010 c0 -14 2 -19 5 -12 2 6 2 18 0 25 -3 6 -5 1 -5 -13z"/>
<path d="M2340 4970 c0 -5 5 -10 11 -10 5 0 7 5 4 10 -3 6 -8 10 -11 10 -2 0
-4 -4 -4 -10z"/>
<path d="M2522 4975 c4 -4 1 -17 -7 -29 -8 -11 -15 -27 -15 -36 0 -13 1 -13
10 0 8 12 10 12 10 1 0 -24 11 -5 16 27 3 19 0 33 -8 38 -7 4 -10 4 -6 -1z"/>
<path d="M2607 4904 c-3 -5 1 -15 9 -22 16 -14 18 -5 5 17 -5 7 -11 9 -14 5z"/>
<path d="M353 4443 c3 -10 8 -30 11 -45 5 -20 19 -34 49 -49 23 -12 54 -30 70
-41 15 -11 27 -15 27 -10 0 15 -99 141 -119 152 -29 15 -43 12 -38 -7z"/>
<path d="M238 4423 c6 -33 18 -43 51 -43 23 0 23 1 -10 35 -41 42 -48 43 -41
8z"/>
<path d="M1841 4184 c0 -11 3 -14 6 -6 3 7 2 16 -1 19 -3 4 -6 -2 -5 -13z"/>
<path d="M750 4100 c-8 -5 -12 -11 -9 -14 2 -3 11 -1 19 4 8 5 12 11 9 14 -2
3 -11 1 -19 -4z"/>
<path d="M488 4038 c7 -7 12 -19 12 -27 0 -11 -3 -12 -11 -4 -12 12 -49 6 -49
-8 0 -10 40 -12 64 -3 12 5 13 10 4 30 -6 13 -16 24 -22 24 -6 0 -5 -5 2 -12z"/>
<path d="M885 3979 c-4 -6 -5 -13 -2 -16 7 -7 27 6 27 18 0 12 -17 12 -25 -2z"/>
<path d="M1447 3944 c-9 -10 2 -24 19 -24 8 0 14 7 14 15 0 15 -21 21 -33 9z"/>
<path d="M1591 3934 c0 -11 3 -14 6 -6 3 7 2 16 -1 19 -3 4 -6 -2 -5 -13z"/>
<path d="M1107 3790 c-22 -36 -21 -43 2 -35 10 3 38 1 62 -4 34 -8 47 -7 60 5
8 7 23 14 32 14 9 0 18 4 21 9 6 9 -30 18 -101 25 -24 3 -46 7 -51 10 -5 3
-16 -8 -25 -24z"/>
<path d="M2807 3803 c3 -7 9 -13 14 -13 5 0 9 6 9 13 0 8 -6 14 -14 14 -8 0
-12 -6 -9 -14z"/>
<path d="M681 3769 c-17 -17 -31 -41 -31 -54 0 -21 3 -23 42 -18 48 5 61 18
47 45 -6 10 -7 28 -4 38 10 31 -19 25 -54 -11z m36 -51 c-3 -8 -6 -5 -6 6 -1
11 2 17 5 13 3 -3 4 -12 1 -19z"/>
<path d="M2880 3719 c0 -5 4 -8 9 -5 5 4 12 0 14 -6 3 -8 6 -6 6 5 1 9 -6 17
-14 17 -8 0 -15 -5 -15 -11z"/>
<path d="M1070 3710 c0 -5 7 -10 16 -10 8 0 12 5 9 10 -3 6 -10 10 -16 10 -5
0 -9 -4 -9 -10z"/>
<path d="M780 3700 c0 -5 6 -10 14 -10 8 0 18 5 21 10 3 6 -3 10 -14 10 -12 0
-21 -4 -21 -10z"/>
<path d="M2699 3703 c-1 -4 -1 -11 0 -15 2 -13 -17 -9 -22 5 -4 9 -6 9 -6 0
-2 -20 20 -26 36 -10 10 10 11 17 4 21 -6 4 -12 4 -12 -1z"/>
<path d="M1622 3666 c-15 -24 -17 -36 -9 -40 7 -2 3 -5 -8 -6 l-20 -1 20 -9
c31 -13 55 -11 55 5 0 8 11 17 25 21 14 3 25 9 25 13 0 14 -26 39 -46 45 -17
5 -26 -1 -42 -28z"/>
<path d="M2730 3681 c-13 -25 -13 -44 0 -36 6 3 10 1 10 -5 0 -7 5 -6 14 2 8
7 12 16 9 21 -8 13 14 7 27 -8 9 -10 17 -12 30 -5 14 8 19 5 25 -13 6 -21 7
-21 15 6 5 16 14 35 21 43 8 10 8 14 0 14 -6 0 -11 -5 -11 -11 0 -5 -5 -7 -12
-3 -7 4 -8 3 -4 -4 10 -16 -9 -15 -26 1 -19 18 -62 22 -53 5 6 -10 5 -11 -6 0
-18 17 -27 15 -39 -7z m85 -11 c-3 -5 -11 -10 -16 -10 -6 0 -7 5 -4 10 3 6 11
10 16 10 6 0 7 -4 4 -10z"/>
<path d="M2920 3686 c0 -2 14 -9 31 -15 27 -9 30 -9 19 4 -11 13 -50 22 -50
11z"/>
<path d="M955 3640 c3 -5 8 -10 11 -10 2 0 4 5 4 10 0 6 -5 10 -11 10 -5 0 -7
-4 -4 -10z"/>
<path d="M1168 3623 c7 -3 16 -2 19 1 4 3 -2 6 -13 5 -11 0 -14 -3 -6 -6z"/>
<path d="M2795 3620 c-3 -5 -1 -10 4 -10 6 0 11 5 11 10 0 6 -2 10 -4 10 -3 0
-8 -4 -11 -10z"/>
<path d="M1025 3610 c-3 -5 -1 -10 4 -10 6 0 11 5 11 10 0 6 -2 10 -4 10 -3 0
-8 -4 -11 -10z"/>
<path d="M190 2976 c0 -16 28 -64 55 -92 5 -6 21 -26 35 -44 14 -18 37 -47 52
-64 15 -17 28 -34 28 -38 0 -4 10 -17 23 -30 12 -13 45 -50 72 -83 28 -32 57
-66 65 -75 8 -8 40 -44 70 -80 106 -123 129 -139 190 -135 25 1 62 3 83 4 23
0 36 5 32 11 -4 6 -26 8 -55 4 -107 -14 -126 -1 -300 206 -8 10 -28 35 -45 56
-16 21 -40 48 -52 60 -13 13 -23 31 -23 40 0 10 -3 15 -6 11 -3 -3 -20 11 -37
31 -18 20 -35 39 -39 40 -5 2 -8 8 -8 13 0 6 -9 20 -21 32 -12 12 -33 38 -47
57 -15 19 -29 37 -33 40 -3 3 -13 16 -22 30 -14 20 -17 21 -17 6z"/>
<path d="M195 2910 c10 -33 31 -62 137 -189 49 -58 96 -114 103 -123 18 -22
40 -24 28 -4 -4 8 -22 29 -38 48 -26 28 -65 76 -125 151 -8 11 -20 24 -25 31
-6 6 -28 34 -49 61 -27 35 -36 42 -31 25z"/>
<path d="M2480 2619 c-85 -16 -174 -31 -198 -34 -51 -6 -91 -12 -157 -25 -27
-5 -68 -12 -90 -16 -62 -8 -377 -62 -405 -69 -14 -3 -40 -8 -57 -10 -18 -3
-52 -9 -75 -14 -24 -5 -72 -12 -108 -16 -36 -3 -74 -9 -85 -12 -11 -4 -31 -7
-45 -8 -99 -7 -280 -41 -280 -52 0 -8 9 -11 28 -8 15 3 131 21 257 41 127 20
275 45 330 56 55 10 132 23 170 28 39 5 251 41 472 80 221 38 411 70 423 70
11 0 20 5 20 10 0 14 -25 12 -200 -21z"/>
<path d="M2109 2516 c-2 -2 -65 -14 -139 -27 -74 -12 -142 -29 -150 -36 -13
-13 -10 -14 25 -8 22 4 65 13 95 20 30 8 84 19 120 25 70 13 112 29 74 30 -11
0 -23 -2 -25 -4z"/>
<path d="M540 2497 c0 -4 9 -26 20 -48 24 -46 19 -74 -13 -83 -16 -4 -29 3
-49 24 -28 31 -36 33 -78 20 l-25 -7 30 -8 c30 -9 30 -9 5 -15 -24 -6 -24 -6
13 -35 23 -16 51 -28 68 -28 16 0 25 -4 18 -7 -15 -10 26 -38 67 -46 20 -4 43
0 64 11 31 16 33 16 59 -9 15 -14 33 -26 40 -26 8 0 -6 18 -30 41 -24 22 -37
37 -29 33 8 -4 6 2 -5 13 -11 11 -36 39 -55 63 -55 68 -100 116 -100 107z m25
-175 c-3 -3 -11 0 -18 7 -9 10 -8 11 6 5 10 -3 15 -9 12 -12z m62 -38 c-3 -3
-12 -4 -19 -1 -8 3 -5 6 6 6 11 1 17 -2 13 -5z"/>
<path d="M1505 2411 c-49 -8 -80 -17 -67 -19 31 -5 161 17 168 29 3 5 2 8 -3
8 -4 -1 -48 -9 -98 -18z"/>
<path d="M915 2361 c-3 -5 -2 -12 2 -14 9 -5 53 10 53 18 0 9 -49 5 -55 -4z"/>
<path d="M720 2301 c0 -11 31 -24 39 -16 3 3 -1 10 -9 15 -19 12 -30 12 -30 1z"/>
<path d="M810 2260 c-27 -6 -29 -8 -10 -8 14 -1 43 3 65 7 33 7 35 9 10 9 -16
-1 -46 -4 -65 -8z"/>
</g>
</svg>
